<svg width="16" height="17" viewBox="0 0 16 17" fill="none" xmlns="http://www.w3.org/2000/svg">
<path d="M1.5 6.96709C1.5 6.34991 1.78495 5.7673 2.27212 5.38838L1.65818 4.59903L2.27212 5.38838L6.77212 1.88838C7.49434 1.32666 8.50566 1.32666 9.22788 1.88838L13.7279 5.38838C14.2151 5.7673 14.5 6.34991 14.5 6.96709V14.6665C14.5 14.8433 14.4298 15.0129 14.3047 15.1379C14.1797 15.2629 14.0101 15.3332 13.8333 15.3332H2.16667C1.98986 15.3332 1.82029 15.2629 1.69526 15.1379C1.57024 15.0129 1.5 14.8433 1.5 14.6665V6.96709Z" stroke="url(#paint0_linear)" stroke-width="2"/>
<defs>
<linearGradient id="paint0_linear" x1="0.5" y1="7.99999" x2="14.78" y2="7.99999" gradientUnits="userSpaceOnUse">
<stop stop-color="#1F59EE"/>
<stop offset="1" stop-color="#093DBB"/>
</linearGradient>
</defs>
</svg>
