<svg width="26" height="26" viewBox="0 0 26 26" fill="none" xmlns="http://www.w3.org/2000/svg">
<mask id="path-1-inside-1" fill="white">
<path fill-rule="evenodd" clip-rule="evenodd" d="M24.6395 13.0001C25.4999 11.6806 26 10.1046 26 8.41181C26 3.7661 22.2339 0 17.5882 0C15.8955 0 14.3195 0.499988 13 1.36034C11.6804 0.499988 10.1045 0 8.41178 0C3.76608 0 0 3.7661 0 8.41181C0 10.1045 0.499966 11.6804 1.36028 12.9999C0.499966 14.3195 0 15.8954 0 17.5881C0 22.2338 3.76608 25.9999 8.41178 25.9999C10.1044 25.9999 11.6803 25.4999 12.9999 24.6396C14.3194 25.4999 15.8953 25.9999 17.5879 25.9999C22.2336 25.9999 25.9997 22.2338 25.9997 17.5881C25.9997 15.8955 25.4998 14.3196 24.6395 13.0001Z"/>
</mask>
<path d="M24.6395 13.0001L23.383 12.1809L22.8489 13.0001L23.383 13.8193L24.6395 13.0001ZM13 1.36034L12.1807 2.61685L13 3.15101L13.8192 2.61685L13 1.36034ZM1.36028 12.9999L2.6168 13.8192L3.15094 12.9999L2.6168 12.1807L1.36028 12.9999ZM12.9999 24.6396L13.8191 23.3831L12.9999 22.849L12.1806 23.3831L12.9999 24.6396ZM24.5 8.41181C24.5 9.80493 24.0894 11.0976 23.383 12.1809L25.896 13.8194C26.9105 12.2636 27.5 10.4042 27.5 8.41181H24.5ZM17.5882 1.5C21.4054 1.5 24.5 4.59452 24.5 8.41181H27.5C27.5 2.93767 23.0623 -1.5 17.5882 -1.5V1.5ZM13.8192 2.61685C14.9025 1.91056 16.1951 1.5 17.5882 1.5V-1.5C15.5958 -1.5 13.7365 -0.91058 12.1807 0.103825L13.8192 2.61685ZM8.41178 1.5C9.80485 1.5 11.0975 1.91056 12.1807 2.61685L13.8192 0.103825C12.2634 -0.91058 10.4041 -1.5 8.41178 -1.5V1.5ZM1.5 8.41181C1.5 4.59452 4.59451 1.5 8.41178 1.5V-1.5C2.93765 -1.5 -1.5 2.93767 -1.5 8.41181H1.5ZM2.6168 12.1807C1.91054 11.0975 1.5 9.80486 1.5 8.41181H-1.5C-1.5 10.4041 -0.910607 12.2634 0.103757 13.8192L2.6168 12.1807ZM1.5 17.5881C1.5 16.195 1.91054 14.9024 2.6168 13.8192L0.103757 12.1807C-0.910607 13.7365 -1.5 15.5957 -1.5 17.5881H1.5ZM8.41178 24.4999C4.59451 24.4999 1.5 21.4054 1.5 17.5881H-1.5C-1.5 23.0622 2.93765 27.4999 8.41178 27.4999V24.4999ZM12.1806 23.3831C11.0974 24.0894 9.80481 24.4999 8.41178 24.4999V27.4999C10.4041 27.4999 12.2633 26.9105 13.8191 25.8962L12.1806 23.3831ZM17.5879 24.4999C16.1949 24.4999 14.9023 24.0894 13.8191 23.3831L12.1806 25.8962C13.7364 26.9105 15.5956 27.4999 17.5879 27.4999V24.4999ZM24.4997 17.5881C24.4997 21.4054 21.4052 24.4999 17.5879 24.4999V27.4999C23.0621 27.4999 27.4997 23.0622 27.4997 17.5881H24.4997ZM23.383 13.8193C24.0892 14.9026 24.4997 16.1951 24.4997 17.5881H27.4997C27.4997 15.5958 26.9104 13.7367 25.8961 12.1809L23.383 13.8193Z" fill="#FA3A3D" mask="url(#path-1-inside-1)"/>
</svg>
