<svg width="40" height="40" viewBox="0 0 40 40" fill="none" xmlns="http://www.w3.org/2000/svg">
<path d="M36 15.5858V5C36 3.89543 35.1046 3 34 3H23.4142C23.149 3 22.8946 3.10536 22.7071 3.29289L4.41421 21.5858C3.63317 22.3668 3.63317 23.6332 4.41421 24.4142L14.5858 34.5858C15.3668 35.3668 16.6332 35.3668 17.4142 34.5858L35.7071 16.2929C35.8946 16.1054 36 15.851 36 15.5858Z" stroke="#1F59EE" stroke-width="2"/>
<circle cx="28.5" cy="10.5" r="3" stroke="#1F59EE"/>
<path d="M9 17L11 19M12.5 20.5L14.5 22.5M16 24L18 26M19.5 27.5L21.5 29.5" stroke="#1F59EE"/>
</svg>
