<svg width="40" height="40" viewBox="0 0 40 40" fill="none" xmlns="http://www.w3.org/2000/svg">
<path d="M9 4C9 2.34315 10.3431 1 12 1H28C29.6569 1 31 2.34315 31 4V35C31 36.1046 30.1046 37 29 37H25.5L24 39H16L14.5 37H11C9.89543 37 9 36.1046 9 35V4Z" stroke="#727F9C" stroke-width="2"/>
<path d="M14.5 36.5L17 35.5H23L25.5 36.5M30.5 28.5H21.5M9.5 28.5C13.0147 28.5 18.5 28.5 18.5 28.5M30.5 3.5H9.5M31.5 6.5H32.5C33.6046 6.5 34.5 7.39543 34.5 8.5V9.5H31.5M8.5 9.5H5.5V8.5C5.5 7.39543 6.39543 6.5 7.5 6.5H8.5" stroke="#727F9C"/>
<rect x="18.5" y="6.5" width="3" height="17" rx="1.5" stroke="#727F9C"/>
<rect x="18.5" y="26.5" width="3" height="5" rx="1.5" stroke="#727F9C"/>
</svg>
