<svg width="40" height="40" viewBox="0 0 40 40" fill="none" xmlns="http://www.w3.org/2000/svg">
<path d="M17 12H18C19.1046 12 20 12.8954 20 14V34C20 35.1046 19.1046 36 18 36H6C4.89543 36 4 35.1046 4 34V14C4 12.8954 4.89543 12 6 12H7M17 12V6C17 5.44772 16.5523 5 16 5H8C7.44772 5 7 5.44772 7 6V12M17 12H7M28 31H27.8264C26.792 31 25.9283 30.2112 25.8346 29.1811L24 9V6C24 5.44772 24.4477 5 25 5H35C35.5523 5 36 5.44772 36 6V9L34.1654 29.1811C34.0717 30.2112 33.208 31 32.1736 31H32M28 31L28.5 36H31.5L32 31M28 31H32" stroke="#727F9C" stroke-width="2"/>
<path d="M24.5 9.5H35.5M4.5 17.5H19.5M4.5 30.5H19.5M16.5 8.5H14C13 10 11 10 10 8.5H7.5" stroke="#727F9C"/>
</svg>
