<svg width="40" height="40" viewBox="0 0 40 40" fill="none" xmlns="http://www.w3.org/2000/svg">
<path d="M30 8V29C30 30.1046 29.1046 31 28 31H26L24 32H16L14 31H12C10.8954 31 10 30.1046 10 29V8C10 5.23858 12.2386 3 15 3H25C27.7614 3 30 5.23858 30 8Z" stroke="#727F9C" stroke-width="2"/>
<rect x="18.5" y="9.5" width="3" height="8" rx="1.5" stroke="#727F9C"/>
<path d="M14.5 30.5V25.5C14.5 23.8431 15.8431 22.5 17.5 22.5H22.5C24.1569 22.5 25.5 23.8431 25.5 25.5V30.5" stroke="#727F9C"/>
<path d="M21.5 38C21.5 38.8284 20.8284 39.5 20 39.5C19.1716 39.5 18.5 38.8284 18.5 38C18.5 37.8374 18.5843 37.5334 18.7703 37.1101C18.9472 36.7074 19.187 36.2599 19.4325 35.8367C19.6324 35.4921 19.8327 35.1693 20 34.9078C20.1673 35.1693 20.3676 35.4921 20.5675 35.8367C20.813 36.2599 21.0528 36.7074 21.2297 37.1101C21.4157 37.5334 21.5 37.8374 21.5 38Z" stroke="#727F9C"/>
</svg>
