<svg width="40" height="40" viewBox="0 0 40 40" fill="none" xmlns="http://www.w3.org/2000/svg">
<path d="M20 36H5V24C5 14.0589 13.0589 6 23 6H33C35.7614 6 38 8.23858 38 11V14H36V16H30V14H29C24.0294 14 20 18.0294 20 23V36Z" stroke="#727F9C" stroke-width="2" stroke-linejoin="round"/>
<path d="M35.5 24C35.5 25.3807 34.3807 26.5 33 26.5C31.6193 26.5 30.5 25.3807 30.5 24C30.5 23.6993 30.6468 23.2013 30.9265 22.5646C31.1972 21.9485 31.562 21.2683 31.9325 20.6296C32.302 19.9925 32.6723 19.4053 32.9506 18.9768C32.9674 18.9509 32.9839 18.9256 33 18.9009C33.0161 18.9256 33.0326 18.9509 33.0494 18.9768C33.3277 19.4053 33.698 19.9925 34.0675 20.6296C34.438 21.2683 34.8028 21.9485 35.0735 22.5646C35.3532 23.2013 35.5 23.6993 35.5 24Z" stroke="#727F9C"/>
<path d="M30 13.5H36M19.5 22.5H15.5C13.8431 22.5 12.5 23.8431 12.5 25.5V26.5C12.5 28.1569 13.8431 29.5 15.5 29.5H19.5M19.5 32.5H5.5" stroke="#727F9C"/>
</svg>
