<svg width="40" height="40" viewBox="0 0 40 40" fill="none" xmlns="http://www.w3.org/2000/svg">
<path d="M36 18L34.2609 29.3041C34.1108 30.2798 33.2713 31 32.2842 31H7.71584C6.7287 31 5.8892 30.2798 5.73909 29.3041L4 18H21M36 18V12C36 9.79086 34.2091 8 32 8H21V18M36 18H21" stroke="#727F9C" stroke-width="2" stroke-linejoin="round"/>
<rect x="26.5" y="12.5" width="7" height="3" rx="1.5" stroke="#727F9C"/>
<path d="M5.5 24.5L9 26.5H31L34.5 24.5" stroke="#727F9C"/>
<circle cx="10" cy="35" r="2" stroke="#727F9C" stroke-width="2"/>
<circle cx="30" cy="35" r="2" stroke="#727F9C" stroke-width="2"/>
<path d="M16.5 17.5L5.5 1.5M11.5 17.5L6.6875 10.5" stroke="#727F9C" stroke-linecap="round"/>
</svg>
