<svg width="40" height="40" viewBox="0 0 40 40" fill="none" xmlns="http://www.w3.org/2000/svg">
<path d="M18.6247 5.67989C19.396 4.94934 20.604 4.94934 21.3753 5.67989L22.6847 6.92002C23.5667 7.7554 24.7806 8.14467 25.9839 7.97803L27.7878 7.72824C28.8513 7.58096 29.8414 8.29974 30.0307 9.35661L30.3242 10.9946C30.5431 12.216 31.3164 13.2668 32.4177 13.8388L33.919 14.6187C34.8882 15.1221 35.2743 16.3099 34.7865 17.2869L34.0743 18.7131C33.5126 19.8382 33.5126 21.1618 34.0743 22.2869L34.7865 23.7131C35.2743 24.6901 34.8882 25.8779 33.919 26.3813L32.4177 27.1612C31.3164 27.7332 30.5431 28.784 30.3242 30.0054L30.0307 31.6434C29.8414 32.7003 28.8513 33.419 27.7878 33.2718L25.9839 33.022C24.7806 32.8553 23.5667 33.2446 22.6847 34.08L21.3753 35.3201C20.604 36.0507 19.396 36.0507 18.6247 35.3201L17.3153 34.08C16.4333 33.2446 15.2194 32.8553 14.0161 33.022L12.2122 33.2718C11.1487 33.419 10.1586 32.7003 9.96925 31.6434L9.67577 30.0054C9.45692 28.784 8.68356 27.7332 7.58234 27.1612L6.08097 26.3813C5.11182 25.8779 4.72569 24.6901 5.21355 23.7131L5.92566 22.2868C6.48738 21.1618 6.48738 19.8382 5.92566 18.7132L5.21355 17.2869C4.72569 16.3099 5.11182 15.1221 6.08097 14.6187L7.58234 13.8388C8.68356 13.2668 9.45692 12.216 9.67577 10.9946L9.96925 9.35661C10.1586 8.29974 11.1487 7.58096 12.2122 7.72824L14.0161 7.97803C15.2194 8.14467 16.4333 7.7554 17.3153 6.92002L18.6247 5.67989Z" stroke="#1F59EE" stroke-width="2"/>
<circle cx="16" cy="17" r="2.5" stroke="#1F59EE"/>
<path d="M25 16L14.5 26.5" stroke="#1F59EE" stroke-linecap="round"/>
<circle cx="24" cy="25" r="2.5" stroke="#1F59EE"/>
</svg>
