<svg width="40" height="40" viewBox="0 0 40 40" fill="none" xmlns="http://www.w3.org/2000/svg">
<path d="M8.46807 12.1916C9.35208 6.88754 13.9412 3 19.3184 3H20.6816C26.0588 3 30.6479 6.88754 31.5319 12.1916L31.9479 14.6873C31.9825 14.8952 31.9952 15.1062 31.9856 15.3167L31.0868 35.0908C31.0382 36.159 30.1581 37 29.0888 37H10.9112C9.8419 37 8.96177 36.159 8.91322 35.0908L8.0144 15.3167C8.00483 15.1062 8.01747 14.8952 8.05212 14.6873L8.46807 12.1916Z" stroke="#727F9C" stroke-width="2"/>
<path d="M9 33.5H31M8 15.5H32M13.5 5V9.5C13.5 11.1569 14.8431 12.5 16.5 12.5H23.5C25.1569 12.5 26.5 11.1569 26.5 9.5V5" stroke="#727F9C"/>
</svg>
