<svg width="38" height="38" viewBox="0 0 38 38" fill="none" xmlns="http://www.w3.org/2000/svg">
<path d="M18.3042 0.673962C18.692 0.298323 19.308 0.298323 19.6958 0.673963L22.1159 3.01827C22.3836 3.27755 22.7732 3.36649 23.1269 3.24902L26.3245 2.18693C26.8369 2.01675 27.3918 2.284 27.5782 2.79069L28.7415 5.9529C28.8702 6.30264 29.1827 6.55183 29.5523 6.59944L32.8941 7.02993C33.4295 7.09891 33.8136 7.58048 33.7617 8.11787L33.4378 11.4717C33.4019 11.8426 33.5753 12.2027 33.8877 12.4059L36.7117 14.2438C37.1643 14.5382 37.3013 15.1387 37.0214 15.6004L35.2744 18.4815C35.0812 18.8002 35.0812 19.1998 35.2744 19.5185L37.0214 22.3996C37.3013 22.8613 37.1643 23.4618 36.7117 23.7562L33.8877 25.5941C33.5753 25.7973 33.4019 26.1574 33.4378 26.5283L33.7617 29.8821C33.8136 30.4195 33.4295 30.9011 32.8941 30.9701L29.5523 31.4006C29.1827 31.4482 28.8702 31.6974 28.7415 32.0471L27.5782 35.2093C27.3918 35.716 26.8369 35.9833 26.3245 35.8131L23.1269 34.751C22.7732 34.6335 22.3836 34.7224 22.1159 34.9817L19.6958 37.326C19.308 37.7017 18.692 37.7017 18.3042 37.326L15.8841 34.9817C15.6164 34.7224 15.2268 34.6335 14.8731 34.751L11.6755 35.8131C11.1631 35.9833 10.6082 35.716 10.4218 35.2093L9.25845 32.0471C9.12979 31.6974 8.81732 31.4482 8.44771 31.4006L5.10593 30.9701C4.57046 30.9011 4.18642 30.4195 4.23833 29.8821L4.56224 26.5283C4.59807 26.1574 4.42466 25.7973 4.11232 25.594L1.28826 23.7562C0.835743 23.4618 0.698683 22.8613 0.978613 22.3996L2.72561 19.5185C2.91883 19.1998 2.91883 18.8002 2.72561 18.4815L0.978612 15.6004C0.698683 15.1387 0.835744 14.5382 1.28826 14.2438L4.11232 12.4059C4.42466 12.2027 4.59807 11.8426 4.56224 11.4717L4.23833 8.11787C4.18642 7.58048 4.57046 7.09891 5.10593 7.02993L8.44771 6.59944C8.81732 6.55183 9.12979 6.30264 9.25845 5.9529L10.4218 2.79069C10.6082 2.284 11.1631 2.01675 11.6755 2.18693L14.8731 3.24902C15.2268 3.36649 15.6164 3.27755 15.8841 3.01827L18.3042 0.673962Z" fill="#1F59EE"/>
<path fill-rule="evenodd" clip-rule="evenodd" d="M19 28C22.3137 28 25 25.3137 25 22C25 18.6863 19 10 19 10C19 10 13 18.6863 13 22C13 25.3137 15.6863 28 19 28ZM23.5 21.5C23.6985 23.4879 23.2384 24.3507 21.5 25.5C21.4573 23.5266 21.9331 22.6672 23.5 21.5Z" fill="white"/>
</svg>
