<svg width="38" height="38" viewBox="0 0 38 38" fill="none" xmlns="http://www.w3.org/2000/svg">
<path d="M17.6085 1.34793C18.3841 0.596646 19.6159 0.596646 20.3915 1.34793L21.6804 2.59638C22.2157 3.11495 22.995 3.29282 23.7023 3.05788L25.4052 2.49227C26.43 2.1519 27.5399 2.6864 27.9127 3.69979L28.5322 5.38382C28.7895 6.08331 29.4145 6.58169 30.1537 6.67691L31.9333 6.90617C33.0043 7.04413 33.7724 8.00726 33.6686 9.08205L33.496 10.8681C33.4244 11.61 33.7712 12.3302 34.3959 12.7367L35.8999 13.7154C36.8049 14.3044 37.079 15.5054 36.5191 16.4287L35.5888 17.963C35.2023 18.6003 35.2023 19.3997 35.5888 20.037L36.5191 21.5713C37.079 22.4946 36.8049 23.6956 35.8999 24.2846L34.3959 25.2633C33.7712 25.6698 33.4244 26.39 33.496 27.1319L33.6686 28.9179C33.7724 29.9927 33.0043 30.9559 31.9333 31.0938L30.1537 31.3231C29.4145 31.4183 28.7895 31.9167 28.5322 32.6162L27.9127 34.3002C27.5399 35.3136 26.43 35.8481 25.4052 35.5077L23.7023 34.9421C22.995 34.7072 22.2157 34.885 21.6804 35.4036L20.3915 36.6521C19.6159 37.4034 18.3841 37.4034 17.6085 36.6521L16.3196 35.4036C15.7843 34.885 15.005 34.7072 14.2977 34.9421L12.5948 35.5077C11.57 35.8481 10.4601 35.3136 10.0873 34.3002L9.4678 32.6162C9.21048 31.9167 8.58554 31.4183 7.84632 31.3231L6.06665 31.0938C4.99571 30.9559 4.22764 29.9927 4.33145 28.9179L4.50395 27.1319C4.5756 26.39 4.22879 25.6698 3.6041 25.2633L2.10014 24.2846C1.19512 23.6956 0.920996 22.4946 1.48086 21.5713L2.41122 20.037C2.79766 19.3997 2.79766 18.6003 2.41122 17.963L1.48086 16.4287C0.920996 15.5054 1.19512 14.3044 2.10014 13.7154L3.6041 12.7367C4.22879 12.3302 4.5756 11.61 4.50395 10.8681L4.33145 9.08205C4.22764 8.00726 4.99572 7.04413 6.06665 6.90617L7.84632 6.67691C8.58554 6.58169 9.21048 6.08331 9.46781 5.38382L10.0873 3.69979C10.4601 2.6864 11.57 2.1519 12.5948 2.49227L14.2977 3.05788C15.005 3.29282 15.7843 3.11495 16.3196 2.59638L17.6085 1.34793Z" fill="#1F59EE"/>
<path fill-rule="evenodd" clip-rule="evenodd" d="M19 28C22.3137 28 25 25.3137 25 22C25 18.6863 19 10 19 10C19 10 13 18.6863 13 22C13 25.3137 15.6863 28 19 28ZM23.5 21.5C23.6985 23.4879 23.2384 24.3507 21.5 25.5C21.4573 23.5266 21.9331 22.6672 23.5 21.5Z" fill="white"/>
</svg>
