<svg width="20" height="20" viewBox="0 0 20 20" fill="none" xmlns="http://www.w3.org/2000/svg">
<path d="M3.5 8.96721C3.5 8.35003 3.78495 7.76742 4.27212 7.38851L3.65818 6.59915L4.27212 7.38851L8.77212 3.88851C9.49434 3.32678 10.5057 3.32678 11.2279 3.88851L15.7279 7.38851C16.2151 7.76742 16.5 8.35003 16.5 8.96721V16.6666C16.5 16.8434 16.4298 17.013 16.3047 17.138C16.1797 17.2631 16.0101 17.3333 15.8333 17.3333H4.16667C3.98986 17.3333 3.82029 17.2631 3.69526 17.138C3.57024 17.013 3.5 16.8434 3.5 16.6666V8.96721Z" stroke="url(#paint0_linear)" stroke-width="2"/>
<defs>
<linearGradient id="paint0_linear" x1="2.5" y1="10.0001" x2="16.78" y2="10.0001" gradientUnits="userSpaceOnUse">
<stop stop-color="#1F59EE"/>
<stop offset="1" stop-color="#093DBB"/>
</linearGradient>
</defs>
</svg>
