<svg width="232" height="28" viewBox="0 0 232 28" fill="none" xmlns="http://www.w3.org/2000/svg">
<path d="M46.9464 27.4988H53.603L40.8403 0.711426H34.1837L35.9955 4.50956L24.6743 27.4988H31.371L32.392 25.4244C32.9225 24.3521 34.0036 23.6806 35.2048 23.6806H45.1246L46.9464 27.4988ZM35.7153 18.6799L39.2888 11.4244L42.502 18.1588H37.3669C36.5961 18.1688 36.1157 18.4093 35.7153 18.6799Z" fill="#1F59EE"/>
<path d="M122.271 27.4988H128.928L116.165 0.711426H109.509L111.32 4.50956L99.9993 27.4888H106.696L107.717 25.4144C108.247 24.3421 109.329 23.6706 110.53 23.6706H120.45L122.271 27.4988ZM111.04 18.6799L114.614 11.4244L117.827 18.1588H112.692C111.921 18.1688 111.441 18.4093 111.04 18.6799Z" fill="white"/>
<path d="M173.322 27.4988H179.978L167.216 0.711426H160.559L162.371 4.50956L151.05 27.4888H157.746L158.767 25.4144C159.298 24.3421 160.379 23.6706 161.58 23.6706H171.5L173.322 27.4988ZM162.09 18.6799L165.664 11.4244L168.877 18.1588H163.742C162.971 18.1688 162.491 18.4093 162.09 18.6799Z" fill="white"/>
<path d="M73.733 0.711426V10.9935C71.9312 11.4344 70.0493 11.1939 68.0473 10.9233C66.0353 10.6527 63.8231 10.3721 61.5008 10.793V0.711426H55.4949V27.4888H61.5008V16.4852C63.2526 15.8639 65.1444 16.1044 67.3266 16.395C68.6379 16.5654 70.0493 16.7558 71.5408 16.7558C72.2515 16.7558 72.9822 16.7057 73.7229 16.5955V27.4988H79.7289V0.711426H73.733Z" fill="#1F59EE"/>
<path d="M199.858 0.711426V10.9935C198.056 11.4344 196.174 11.1939 194.172 10.9233C192.16 10.6527 189.948 10.3721 187.626 10.793V0.711426H181.62V27.4888H187.626V16.4852C189.378 15.8639 191.269 16.1044 193.452 16.395C194.763 16.5654 196.174 16.7558 197.666 16.7558C198.376 16.7558 199.107 16.7057 199.848 16.5955V27.4988H205.854V0.711426H199.858Z" fill="white"/>
<path d="M103.793 0.711426H84.3735V27.4988H90.3795V6.22324H103.793V0.711426Z" fill="white"/>
<path d="M143.923 0.711426H130.669V27.4888H136.675V18.9906C136.675 18.1889 137.326 17.5375 138.127 17.5375H144.213C149.038 17.5375 152.922 13.4487 152.591 8.54822C152.301 4.08866 148.387 0.711426 143.923 0.711426ZM143.712 12.0257H138.707C137.726 12.0257 137.256 12.2061 136.675 12.6169V6.22324H143.722C145.324 6.22324 146.615 7.52603 146.615 9.11944C146.615 10.7129 145.314 12.0257 143.712 12.0257Z" fill="white"/>
<path d="M21.151 18.8003C19.4693 20.9148 16.7966 21.9871 13.9939 21.9871C9.59951 21.9871 6.01596 18.4094 6.01596 14C6.01596 9.59055 9.58951 6.01288 13.9839 6.01288C17.0669 6.01288 19.5994 7.07516 21.3111 9.45025L25.1449 5.61203C22.6024 2.21475 18.5484 0 13.9839 0C6.27622 0 0 6.28346 0 14C0 21.7165 6.27622 28 13.9839 28C18.4383 28 22.4022 25.8955 24.9648 22.6285L21.151 18.8003Z" fill="#1F59EE"/>
<path d="M232 0.711426H209.257V6.22324H217.626V27.4988H223.632V6.22324H232V0.711426Z" fill="white"/>
</svg>
