<svg width="32" height="32" viewBox="0 0 32 32" fill="none" xmlns="http://www.w3.org/2000/svg">
<path d="M16 30C18.15 30 26.8 21.05 26.8 12.95C26.8 6.9 21.95 2 16 2C10.05 2 5.20001 6.9 5.20001 12.95C5.20001 21.05 13.85 30 16 30ZM10.1 12C10.1 11.2 10.25 10.4 10.55 9.7C10.75 9.25 11.35 9.2 11.6 9.6C12 10.25 12.75 10.7 13.6 10.7C14.9 10.7 16 9.6 16 8.3C16 7.75 15.85 7.3 15.55 6.9C15.25 6.55 15.5 6 16 6C19.25 6 21.9 8.7 21.9 12C21.9 15.3 19.25 18 16 18C12.75 18 10.1 15.3 10.1 12Z" fill="#0072FF"/>
</svg>
