<svg width="250" height="57" viewBox="0 0 250 57" fill="none" xmlns="http://www.w3.org/2000/svg">
<path d="M65.2852 27.0344H71.9296L59.1903 0.699463H52.5459L54.3543 4.43345L43.0538 27.0344H49.7382L50.7574 24.995C51.2869 23.9408 52.366 23.2807 53.565 23.2807H63.4667L65.2852 27.0344ZM54.0746 18.3645L57.6416 11.2315L60.8489 17.8522H55.7232C54.9538 17.862 54.4742 18.0985 54.0746 18.3645Z" fill="#1F59EE"/>
<path d="M140.472 27.0344H147.116L134.377 0.699463H127.733L129.541 4.43345L118.241 27.0246H124.925L125.944 24.9852C126.474 23.931 127.553 23.2709 128.752 23.2709H138.654L140.472 27.0344ZM129.261 18.3645L132.828 11.2315L136.036 17.8522H130.91C130.141 17.862 129.661 18.0985 129.261 18.3645Z" fill="#0A2F87"/>
<path d="M191.429 27.0344H198.074L185.334 0.699463H178.69L180.498 4.43345L169.198 27.0246H175.882L176.901 24.9852C177.431 23.931 178.51 23.2709 179.709 23.2709H189.611L191.429 27.0344ZM180.219 18.3645L183.786 11.2315L186.993 17.8522H181.867C181.098 17.862 180.618 18.0985 180.219 18.3645Z" fill="#0A2F87"/>
<path d="M92.0227 0.699463V10.8078C90.2242 11.2413 88.3458 11.0049 86.3475 10.7389C84.3392 10.4729 82.131 10.197 79.813 10.6108V0.699463H73.818V27.0246H79.813V16.2069C81.5615 15.596 83.4499 15.8325 85.6281 16.1182C86.937 16.2857 88.3458 16.4729 89.8345 16.4729C90.5439 16.4729 91.2733 16.4236 92.0127 16.3152V27.0344H98.0077V0.699463H92.0227Z" fill="#1F59EE"/>
<path d="M217.917 0.699463V10.8078C216.118 11.2413 214.24 11.0049 212.242 10.7389C210.233 10.4729 208.025 10.197 205.707 10.6108V0.699463H199.712V27.0246H205.707V16.2069C207.456 15.596 209.344 15.8325 211.522 16.1182C212.831 16.2857 214.24 16.4729 215.729 16.4729C216.438 16.4729 217.168 16.4236 217.907 16.3152V27.0344H223.902V0.699463H217.917Z" fill="#0A2F87"/>
<path d="M122.028 0.699463H102.644V27.0344H108.639V6.11818H122.028V0.699463Z" fill="#0A2F87"/>
<path d="M162.084 0.699463H148.855V27.0246H154.85V18.6699C154.85 17.8817 155.499 17.2413 156.299 17.2413H162.374C167.19 17.2413 171.066 13.2216 170.737 8.4039C170.447 4.01966 166.54 0.699463 162.084 0.699463ZM161.874 11.8226H156.878C155.899 11.8226 155.429 12 154.85 12.4039V6.11818H161.884C163.483 6.11818 164.772 7.39897 164.772 8.96547C164.772 10.532 163.473 11.8226 161.874 11.8226Z" fill="#0A2F87"/>
<path d="M39.5368 18.4828C37.8582 20.5616 35.1905 21.6158 32.3928 21.6158C28.0065 21.6158 24.4295 18.0985 24.4295 13.7635C24.4295 9.42857 27.9965 5.91133 32.3828 5.91133C35.4602 5.91133 37.9881 6.95567 39.6967 9.29064L43.5235 5.51724C40.9856 2.17734 36.939 0 32.3828 0C24.6893 0 18.4246 6.17734 18.4246 13.7635C18.4246 21.3498 24.6893 27.5271 32.3828 27.5271C36.8291 27.5271 40.7858 25.4581 43.3436 22.2463L39.5368 18.4828Z" fill="#1F59EE"/>
<path d="M250 0.699463H227.299V6.11818H235.652V27.0344H241.647V6.11818H250V0.699463Z" fill="#0A2F87"/>
<path fill-rule="evenodd" clip-rule="evenodd" d="M58.8895 34.7339C41.9712 37.4028 22.295 40.5068 0 20.4434C20.5795 52.1995 43.6485 47.5315 64.0135 43.4108C76.465 40.8912 87.9057 38.5763 97.1484 44.9163C86.6082 30.3612 73.8233 32.378 58.8895 34.7339ZM64.5505 47.3369C77.653 44.2876 88.8485 41.6822 97.608 50.1872C90.071 47.0195 80.9919 49.3312 70.836 51.917C54.617 56.0466 35.6519 60.8754 15.8367 45.202C33.8694 54.4771 50.3327 50.6457 64.5505 47.3369Z" fill="url(#paint0_linear)"/>
<path d="M101.365 45.6059L103.833 39.9211H104.992L107.47 45.6059H106.231L105.671 44.2955H103.073L102.514 45.6059H101.365ZM103.433 43.4876H105.312L104.372 41.1625L103.433 43.4876Z" fill="#0A2F87"/>
<path d="M108.469 45.6059V39.9211H109.628V42.3054H110.287L112.675 39.9211H113.994L111.227 42.6206L114.084 45.6059H112.675L110.287 43.064H109.628V45.6059H108.469Z" fill="#0A2F87"/>
<path d="M116.422 45.5371C116.073 45.4287 115.773 45.2612 115.513 45.0248C115.253 44.7883 115.043 44.4927 114.893 44.1184C114.744 43.744 114.664 43.3203 114.664 42.808V42.6405C114.664 42.1479 114.744 41.7243 114.893 41.3696C115.043 41.0149 115.253 40.7292 115.523 40.5026C115.783 40.276 116.092 40.1085 116.442 40.0001C116.792 39.8918 117.152 39.8326 117.541 39.8326C117.901 39.8326 118.241 39.872 118.55 39.9509C118.86 40.0297 119.13 40.1479 119.37 40.3055C119.6 40.4632 119.799 40.6602 119.939 40.8868C120.079 41.1134 120.179 41.3893 120.219 41.7046H119.01C118.93 41.3499 118.77 41.0937 118.51 40.9361C118.251 40.7686 117.931 40.6898 117.541 40.6898C117.321 40.6898 117.112 40.7292 116.912 40.7982C116.712 40.8671 116.542 40.9755 116.382 41.1331C116.232 41.2809 116.102 41.4878 116.013 41.7341C115.923 41.9804 115.873 42.2858 115.873 42.6405V42.808C115.873 43.1824 115.923 43.5075 116.023 43.7637C116.122 44.0198 116.242 44.2267 116.402 44.3844C116.562 44.542 116.742 44.6602 116.942 44.7292C117.142 44.7982 117.341 44.8376 117.531 44.8376C117.961 44.8376 118.301 44.7489 118.55 44.5617C118.8 44.3844 118.95 44.1282 119 43.8228H120.209C120.169 44.1578 120.069 44.4435 119.919 44.6799C119.769 44.9164 119.57 45.1134 119.34 45.2612C119.11 45.409 118.83 45.5272 118.52 45.5962C118.211 45.6652 117.881 45.7046 117.531 45.7046C117.142 45.6947 116.772 45.6454 116.422 45.5371Z" fill="#0A2F87"/>
<path d="M121.488 45.6059V39.9211H125.904V40.7389H122.647V42.2857H125.625V43.0837H122.647V44.7881H125.904V45.6059H121.488Z" fill="#0A2F87"/>
<path d="M128.642 45.5371C128.292 45.4287 127.993 45.2612 127.733 45.0248C127.473 44.7883 127.263 44.4927 127.113 44.1184C126.963 43.744 126.893 43.3105 126.893 42.808V42.6405C126.893 42.1479 126.973 41.7243 127.123 41.3696C127.273 41.0149 127.483 40.7292 127.753 40.5026C128.012 40.276 128.322 40.1085 128.672 40.0001C129.022 39.8918 129.381 39.8326 129.771 39.8326C130.131 39.8326 130.47 39.872 130.78 39.9509C131.09 40.0297 131.36 40.1479 131.599 40.3055C131.829 40.4632 132.029 40.6602 132.169 40.8868C132.309 41.1134 132.409 41.3893 132.449 41.7046H131.24C131.16 41.3499 131 41.0937 130.74 40.9361C130.48 40.7686 130.161 40.6898 129.771 40.6898C129.551 40.6898 129.341 40.7292 129.142 40.7982C128.942 40.8671 128.772 40.9755 128.612 41.1331C128.462 41.2809 128.332 41.4878 128.242 41.7341C128.152 41.9804 128.102 42.2858 128.102 42.6405V42.808C128.102 43.1824 128.152 43.5075 128.252 43.7637C128.352 44.0198 128.472 44.2267 128.632 44.3844C128.792 44.542 128.972 44.6602 129.172 44.7292C129.371 44.7982 129.571 44.8376 129.761 44.8376C130.191 44.8376 130.53 44.7489 130.78 44.5617C131.03 44.3844 131.18 44.1282 131.23 43.8228H132.439C132.399 44.1578 132.299 44.4435 132.149 44.6799C131.999 44.9164 131.799 45.1134 131.569 45.2612C131.34 45.409 131.06 45.5272 130.75 45.5962C130.44 45.6652 130.111 45.7046 129.761 45.7046C129.361 45.6947 128.992 45.6454 128.642 45.5371Z" fill="#0A2F87"/>
<path d="M135.137 45.5371C134.787 45.4287 134.487 45.2612 134.227 45.0248C133.968 44.7883 133.758 44.4927 133.608 44.1184C133.458 43.744 133.378 43.3203 133.378 42.808V42.6405C133.378 42.1479 133.458 41.7243 133.608 41.3696C133.758 41.0149 133.968 40.7292 134.237 40.5026C134.497 40.276 134.807 40.1085 135.157 40.0001C135.506 39.8918 135.866 39.8326 136.256 39.8326C136.615 39.8326 136.955 39.872 137.265 39.9509C137.575 40.0297 137.844 40.1479 138.084 40.3055C138.314 40.4632 138.514 40.6602 138.654 40.8868C138.793 41.1134 138.893 41.3893 138.933 41.7046H137.724C137.644 41.3499 137.485 41.0937 137.225 40.9361C136.965 40.7686 136.645 40.6898 136.256 40.6898C136.036 40.6898 135.826 40.7292 135.626 40.7982C135.426 40.8671 135.256 40.9755 135.097 41.1331C134.947 41.2809 134.817 41.4878 134.727 41.7341C134.637 41.9804 134.587 42.2858 134.587 42.6405V42.808C134.587 43.1824 134.637 43.5075 134.737 43.7637C134.837 44.0198 134.957 44.2267 135.117 44.3844C135.276 44.542 135.456 44.6602 135.656 44.7292C135.856 44.7982 136.056 44.8376 136.246 44.8376C136.675 44.8376 137.015 44.7489 137.265 44.5617C137.515 44.3844 137.664 44.1282 137.714 43.8228H138.923C138.883 44.1578 138.784 44.4435 138.634 44.6799C138.484 44.9164 138.284 45.1134 138.054 45.2612C137.824 45.409 137.545 45.5272 137.235 45.5962C136.925 45.6652 136.595 45.7046 136.246 45.7046C135.856 45.6947 135.476 45.6454 135.137 45.5371Z" fill="#0A2F87"/>
<path d="M140.842 45.6945C140.772 45.6945 140.722 45.6847 140.672 45.6748V44.8177C140.722 44.8275 140.772 44.8275 140.832 44.8275C140.892 44.8275 140.952 44.8275 141.022 44.8275C141.151 44.8275 141.261 44.8177 141.361 44.8078C141.451 44.7881 141.531 44.7586 141.601 44.7192C141.671 44.6699 141.731 44.6108 141.781 44.532C141.831 44.4532 141.891 44.3546 141.941 44.2463L139.253 39.9211H140.452L142.5 43.2906L144.199 39.9211H145.358L143.03 44.4039C142.91 44.6305 142.79 44.8275 142.67 44.995C142.55 45.1625 142.41 45.2906 142.261 45.399C142.111 45.4975 141.931 45.5763 141.731 45.6256C141.531 45.6748 141.301 45.6945 141.042 45.6945C140.972 45.6945 140.902 45.6945 140.842 45.6945Z" fill="#0A2F87"/>
<path d="M144.828 45.6059L147.296 39.9211H148.455L150.933 45.6059H149.694L149.135 44.2955H146.537L145.977 45.6059H144.828ZM146.897 43.4876H148.775L147.836 41.1625L146.897 43.4876Z" fill="#0A2F87"/>
<path d="M151.932 45.6059V39.9211H154.33C154.77 39.9211 155.15 39.9606 155.479 40.0492C155.809 40.1379 156.079 40.2561 156.289 40.4236C156.499 40.5812 156.658 40.7783 156.768 40.995C156.878 41.2118 156.928 41.4679 156.928 41.734C156.928 42.0098 156.878 42.2561 156.768 42.4729C156.668 42.6995 156.509 42.8867 156.289 43.0443C156.079 43.2019 155.809 43.33 155.479 43.4187C155.15 43.5073 154.77 43.5468 154.33 43.5468H153.091V45.6059H151.932ZM153.091 42.6995H154.24C154.8 42.6995 155.2 42.6108 155.429 42.4433C155.659 42.2758 155.769 42.0394 155.769 41.734C155.769 41.4285 155.659 41.1921 155.429 41.0246C155.2 40.8571 154.81 40.7684 154.24 40.7684H153.091V42.6995Z" fill="#0A2F87"/>
<path d="M158.137 45.6059V39.9211H159.296V42.0689H160.345C160.785 42.0689 161.165 42.1083 161.494 42.197C161.824 42.2857 162.094 42.4039 162.304 42.5517C162.514 42.7093 162.673 42.8965 162.783 43.1133C162.893 43.33 162.943 43.5763 162.943 43.8423C162.943 44.1083 162.893 44.3448 162.783 44.5714C162.673 44.798 162.524 44.9753 162.304 45.133C162.094 45.2906 161.824 45.4088 161.494 45.4876C161.165 45.5665 160.785 45.6157 160.345 45.6157H158.137V45.6059ZM159.296 44.7586H160.255C160.805 44.7586 161.195 44.6798 161.424 44.5123C161.654 44.3448 161.764 44.1182 161.764 43.8325C161.764 43.5468 161.654 43.3202 161.424 43.1527C161.195 42.9852 160.815 42.9064 160.255 42.9064H159.296V44.7586ZM163.752 45.6059V39.9211H164.912V45.6059H163.752Z" fill="#0A2F87"/>
<path d="M168.179 46.66V44.7585H168.898C169.008 44.5615 169.088 44.3251 169.158 44.0393C169.228 43.7536 169.288 43.4482 169.328 43.1231C169.368 42.798 169.398 42.463 169.418 42.128C169.438 41.7832 169.438 41.4581 169.438 41.1329V39.9113H173.904V44.7487H174.653V46.6502H173.604V45.596H169.228V46.6502H168.179V46.66ZM172.755 44.7585V40.7585H170.557V41.2906C170.557 42.059 170.517 42.729 170.437 43.2807C170.357 43.8423 170.237 44.3349 170.067 44.7487H172.755V44.7585Z" fill="#0A2F87"/>
<path d="M175.602 45.6946C175.543 45.6946 175.493 45.6847 175.443 45.6749V44.7488C175.453 44.7586 175.473 44.7586 175.503 44.7586C175.533 44.7586 175.553 44.7586 175.583 44.7586C175.762 44.7586 175.902 44.7192 176.022 44.6502C176.142 44.5813 176.242 44.4236 176.312 44.1872C176.392 43.9507 176.442 43.6158 176.472 43.1724C176.502 42.7291 176.522 42.1379 176.522 41.3892V39.931H181.128V45.6158H179.969V40.7783H177.641V41.5566C177.641 42.4433 177.601 43.1527 177.521 43.6946C177.441 44.2364 177.321 44.6601 177.161 44.9557C177.001 45.2512 176.811 45.4581 176.582 45.5566C176.352 45.6552 176.082 45.7044 175.772 45.7044C175.712 45.6946 175.662 45.6946 175.602 45.6946Z" fill="#0A2F87"/>
<path d="M182.347 45.6058L184.085 43.3103C183.596 43.1822 183.236 42.9753 182.986 42.6896C182.746 42.4039 182.627 42.0689 182.627 41.6847C182.627 41.4285 182.677 41.1822 182.786 40.9654C182.896 40.7487 183.046 40.5615 183.256 40.4039C183.466 40.2462 183.726 40.128 184.035 40.0393C184.345 39.9507 184.705 39.9113 185.124 39.9113H187.612V45.596H186.453V43.4186H185.144L183.586 45.596H182.347V45.6058ZM186.453 42.6206V40.7684H185.304C184.745 40.7684 184.355 40.8472 184.125 41.0147C183.895 41.1822 183.786 41.4088 183.786 41.6847C183.786 41.9605 183.895 42.1871 184.125 42.3546C184.355 42.5221 184.745 42.6009 185.304 42.6009H186.453V42.6206Z" fill="#0A2F87"/>
<path d="M192.978 45.5371C192.628 45.4287 192.328 45.2612 192.069 45.0248C191.809 44.7883 191.599 44.4927 191.449 44.1184C191.299 43.744 191.219 43.3203 191.219 42.808V42.6405C191.219 42.1479 191.299 41.7243 191.449 41.3696C191.599 41.0149 191.809 40.7292 192.079 40.5026C192.338 40.276 192.648 40.1085 192.998 40.0001C193.348 39.8918 193.707 39.8326 194.097 39.8326C194.457 39.8326 194.796 39.872 195.106 39.9509C195.416 40.0297 195.686 40.1479 195.925 40.3055C196.155 40.4632 196.355 40.6602 196.495 40.8868C196.635 41.1134 196.735 41.3893 196.775 41.7046H195.566C195.486 41.3499 195.326 41.0937 195.066 40.9361C194.806 40.7686 194.487 40.6898 194.097 40.6898C193.877 40.6898 193.667 40.7292 193.467 40.7982C193.268 40.8671 193.098 40.9755 192.938 41.1331C192.788 41.2809 192.658 41.4878 192.568 41.7341C192.478 41.9804 192.428 42.2858 192.428 42.6405V42.808C192.428 43.1824 192.478 43.5075 192.578 43.7637C192.678 44.0198 192.798 44.2267 192.958 44.3844C193.118 44.542 193.298 44.6602 193.497 44.7292C193.697 44.7982 193.897 44.8376 194.087 44.8376C194.517 44.8376 194.856 44.7489 195.106 44.5617C195.356 44.3844 195.506 44.1282 195.556 43.8228H196.765C196.725 44.1578 196.625 44.4435 196.475 44.6799C196.325 44.9164 196.125 45.1134 195.895 45.2612C195.666 45.409 195.386 45.5272 195.076 45.5962C194.766 45.6652 194.437 45.7046 194.087 45.7046C193.697 45.6947 193.328 45.6454 192.978 45.5371Z" fill="#0A2F87"/>
<path d="M197.164 45.6059L199.632 39.9211H200.791L203.269 45.6059H202.03L201.471 44.2955H198.873L198.313 45.6059H197.164ZM199.233 43.4876H201.111L200.172 41.1625L199.233 43.4876Z" fill="#0A2F87"/>
<path d="M204.268 45.6059V39.9211H205.427V42.2561H208.565V39.9211H209.724V45.6059H208.565V43.1034H205.427V45.6059H204.268Z" fill="#0A2F87"/>
<path d="M212.312 45.6945C212.242 45.6945 212.192 45.6847 212.142 45.6748V44.8177C212.192 44.8275 212.242 44.8275 212.302 44.8275C212.362 44.8275 212.422 44.8275 212.492 44.8275C212.621 44.8275 212.731 44.8177 212.831 44.8078C212.921 44.7881 213.001 44.7586 213.071 44.7192C213.141 44.6699 213.201 44.6108 213.251 44.532C213.301 44.4532 213.361 44.3546 213.411 44.2463L210.723 39.9211H211.922L213.97 43.2906L215.669 39.9211H216.828L214.5 44.4039C214.38 44.6305 214.26 44.8275 214.14 44.995C214.02 45.1625 213.88 45.2906 213.73 45.399C213.581 45.4975 213.401 45.5763 213.201 45.6256C213.001 45.6748 212.771 45.6945 212.512 45.6945C212.452 45.6945 212.382 45.6945 212.312 45.6945Z" fill="#0A2F87"/>
<path d="M218.706 45.5666C218.387 45.478 218.117 45.3597 217.897 45.2021C217.677 45.0445 217.507 44.8573 217.377 44.6405C217.248 44.4238 217.178 44.1775 217.158 43.9016H218.327C218.357 44.0494 218.397 44.1775 218.476 44.2957C218.556 44.4139 218.646 44.5124 218.766 44.6011C218.886 44.6898 219.036 44.7489 219.206 44.7883C219.376 44.8277 219.576 44.8573 219.795 44.8573C220.305 44.8573 220.685 44.7785 220.904 44.6208C221.134 44.4632 221.244 44.2464 221.244 43.9706C221.244 43.8326 221.214 43.7144 221.164 43.5962C221.114 43.478 221.034 43.3893 220.914 43.3105C220.795 43.2317 220.645 43.1627 220.455 43.1233C220.265 43.074 220.045 43.0543 219.775 43.0543H218.976V42.3055H219.775C220.205 42.3055 220.515 42.2267 220.705 42.0592C220.894 41.8918 220.994 41.6947 220.994 41.4681C220.994 41.2415 220.894 41.0445 220.695 40.8967C220.495 40.7489 220.185 40.6701 219.765 40.6701C219.546 40.6701 219.356 40.6898 219.196 40.7292C219.036 40.7686 218.906 40.8179 218.796 40.8967C218.686 40.9656 218.606 41.0543 218.556 41.1627C218.496 41.2711 218.467 41.3893 218.447 41.5174H217.278C217.297 41.2612 217.357 41.0346 217.477 40.8179C217.597 40.6011 217.747 40.4336 217.957 40.2858C218.157 40.1381 218.417 40.0297 218.716 39.9509C219.016 39.872 219.376 39.8326 219.775 39.8326C220.575 39.8326 221.174 39.9804 221.574 40.2661C221.974 40.5519 222.173 40.9459 222.173 41.4386C222.173 41.7341 222.073 41.9903 221.884 42.1972C221.694 42.4041 221.434 42.5519 221.114 42.6504C221.514 42.7292 221.824 42.8868 222.053 43.1134C222.283 43.34 222.403 43.6454 222.403 44.0198C222.403 44.2661 222.343 44.4927 222.233 44.6898C222.123 44.8868 221.954 45.074 221.734 45.2218C221.514 45.3696 221.244 45.4878 220.914 45.5666C220.585 45.6454 220.205 45.6947 219.775 45.6947C219.396 45.6947 219.026 45.6553 218.706 45.5666Z" fill="#0A2F87"/>
<path d="M223.253 45.6946C223.193 45.6946 223.143 45.6847 223.093 45.6749V44.7488C223.103 44.7586 223.123 44.7586 223.153 44.7586C223.173 44.7586 223.203 44.7586 223.233 44.7586C223.412 44.7586 223.552 44.7192 223.672 44.6502C223.792 44.5813 223.892 44.4236 223.962 44.1872C224.042 43.9507 224.092 43.6158 224.122 43.1724C224.152 42.7291 224.172 42.1379 224.172 41.3892V39.931H228.778V45.6158H227.619V40.7783H225.291V41.5566C225.291 42.4433 225.251 43.1527 225.171 43.6946C225.091 44.2364 224.971 44.6601 224.811 44.9557C224.651 45.2512 224.462 45.4581 224.232 45.5566C224.002 45.6552 223.732 45.7044 223.422 45.7044C223.372 45.6946 223.312 45.6946 223.253 45.6946Z" fill="#0A2F87"/>
<path d="M232.015 45.5271C231.655 45.4187 231.336 45.2413 231.056 45.0147C230.776 44.7783 230.556 44.4827 230.397 44.1182C230.237 43.7537 230.147 43.3202 230.147 42.8079V42.6404C230.147 42.1478 230.227 41.7241 230.397 41.3694C230.566 41.0148 230.786 40.729 231.056 40.4926C231.336 40.266 231.655 40.0886 232.015 39.9901C232.375 39.8817 232.755 39.8226 233.154 39.8226C233.544 39.8226 233.924 39.8719 234.293 39.9901C234.653 40.0985 234.973 40.266 235.252 40.4926C235.532 40.7192 235.752 41.0148 235.912 41.3694C236.072 41.7241 236.162 42.1478 236.162 42.6404V42.8079C236.162 43.3202 236.082 43.7635 235.912 44.1182C235.742 44.4729 235.522 44.7783 235.252 45.0147C234.973 45.2512 234.653 45.4187 234.293 45.5271C233.934 45.6354 233.554 45.6946 233.154 45.6946C232.755 45.6946 232.375 45.6354 232.015 45.5271ZM233.824 44.729C234.043 44.6601 234.233 44.5418 234.393 44.3842C234.553 44.2266 234.683 44.0098 234.783 43.7537C234.883 43.4975 234.933 43.1822 234.933 42.8079V42.6404C234.933 42.2857 234.883 41.9803 234.783 41.734C234.683 41.4877 234.553 41.2906 234.393 41.133C234.233 40.9753 234.043 40.867 233.824 40.798C233.604 40.729 233.374 40.6896 233.144 40.6896C232.914 40.6896 232.685 40.729 232.465 40.798C232.245 40.867 232.055 40.9852 231.895 41.133C231.735 41.2906 231.606 41.4877 231.506 41.734C231.406 41.9803 231.356 42.2857 231.356 42.6404V42.8079C231.356 43.1822 231.406 43.4975 231.506 43.7537C231.606 44.0098 231.735 44.2266 231.895 44.3842C232.055 44.5418 232.245 44.6601 232.465 44.729C232.685 44.798 232.914 44.8374 233.144 44.8374C233.384 44.8374 233.604 44.798 233.824 44.729Z" fill="#0A2F87"/>
<path d="M237.521 45.6059V39.9211H240.138C240.538 39.9211 240.868 39.9606 241.147 40.0295C241.427 40.0985 241.657 40.2069 241.847 40.3349C242.027 40.463 242.167 40.6206 242.257 40.8177C242.346 41.0147 242.386 41.2118 242.386 41.4384C242.386 41.734 242.297 41.9803 242.117 42.1872C241.937 42.394 241.697 42.5418 241.407 42.6404C241.797 42.7192 242.107 42.867 242.336 43.0936C242.556 43.3202 242.666 43.6256 242.666 44C242.666 44.2364 242.616 44.4532 242.526 44.6502C242.436 44.8473 242.297 45.0147 242.107 45.1625C241.917 45.3005 241.677 45.4088 241.377 45.4876C241.078 45.5665 240.718 45.6059 240.298 45.6059H237.521ZM238.68 42.3054H240.008C240.238 42.3054 240.438 42.2857 240.588 42.2463C240.748 42.2069 240.868 42.1576 240.968 42.0886C241.068 42.0197 241.127 41.931 241.167 41.8325C241.207 41.7339 241.227 41.6256 241.227 41.5172C241.227 41.399 241.207 41.2906 241.167 41.1921C241.127 41.0936 241.058 41.0147 240.968 40.9458C240.868 40.8768 240.748 40.8275 240.588 40.7881C240.438 40.7487 240.238 40.7389 239.998 40.7389H238.67V42.3054H238.68ZM238.68 44.7881H240.178C240.438 44.7881 240.648 44.7684 240.818 44.729C240.988 44.6896 241.127 44.6404 241.227 44.5615C241.327 44.4827 241.407 44.3941 241.447 44.2857C241.487 44.1773 241.517 44.0591 241.517 43.9211C241.517 43.7832 241.497 43.665 241.447 43.5566C241.407 43.4482 241.327 43.3596 241.227 43.2807C241.127 43.2019 240.988 43.1527 240.808 43.1133C240.628 43.0739 240.418 43.0541 240.158 43.0541H238.68V44.7881Z" fill="#0A2F87"/>
<defs>
<linearGradient id="paint0_linear" x1="-3.39432e-07" y1="30" x2="98" y2="49.5" gradientUnits="userSpaceOnUse">
<stop offset="0.10969" stop-color="#1F59EE"/>
<stop offset="0.927922" stop-color="#002478"/>
</linearGradient>
</defs>
</svg>
