<svg width="71" height="26" viewBox="0 0 71 26" fill="none" xmlns="http://www.w3.org/2000/svg">
<rect width="71" height="26" rx="3" fill="#1F59EE"/>
<path d="M11.875 18.143C11.3203 18.143 10.7917 18.0563 10.289 17.883C9.78633 17.7097 9.34433 17.441 8.963 17.077C8.58167 16.7043 8.27833 16.2277 8.053 15.647C7.82767 15.0577 7.715 14.347 7.715 13.515V13.255C7.715 12.4577 7.82767 11.7773 8.053 11.214C8.27833 10.642 8.58167 10.174 8.963 9.81C9.34433 9.446 9.78633 9.18167 10.289 9.017C10.7917 8.84367 11.3203 8.757 11.875 8.757C12.4297 8.757 12.9583 8.84367 13.461 9.017C13.9637 9.18167 14.4057 9.446 14.787 9.81C15.1683 10.174 15.4717 10.642 15.697 11.214C15.9223 11.7773 16.035 12.4577 16.035 13.255V13.515C16.035 14.347 15.9223 15.0577 15.697 15.647C15.4717 16.2277 15.1683 16.7043 14.787 17.077C14.4057 17.441 13.9637 17.7097 13.461 17.883C12.9583 18.0563 12.4297 18.143 11.875 18.143ZM11.875 16.765C12.1957 16.765 12.5077 16.7087 12.811 16.596C13.1143 16.4833 13.383 16.3013 13.617 16.05C13.851 15.79 14.0373 15.452 14.176 15.036C14.3233 14.62 14.397 14.113 14.397 13.515V13.255C14.397 12.683 14.3233 12.202 14.176 11.812C14.0373 11.4133 13.851 11.0927 13.617 10.85C13.383 10.5987 13.1143 10.4167 12.811 10.304C12.5077 10.1913 12.1957 10.135 11.875 10.135C11.5457 10.135 11.2293 10.1913 10.926 10.304C10.6227 10.4167 10.354 10.5987 10.12 10.85C9.886 11.0927 9.69967 11.4133 9.561 11.812C9.42233 12.202 9.353 12.683 9.353 13.255V13.515C9.353 14.113 9.42233 14.62 9.561 15.036C9.69967 15.452 9.886 15.79 10.12 16.05C10.354 16.3013 10.6227 16.4833 10.926 16.596C11.2293 16.7087 11.5457 16.765 11.875 16.765ZM20.65 18.143C20.182 18.143 19.7443 18.0563 19.337 17.883C18.9297 17.7097 18.5787 17.4583 18.284 17.129C17.9893 16.791 17.7553 16.3793 17.582 15.894C17.4173 15.4 17.335 14.8367 17.335 14.204V13.944C17.335 13.164 17.3913 12.4707 17.504 11.864C17.6167 11.2573 17.8073 10.7417 18.076 10.317C18.3533 9.88367 18.7173 9.55 19.168 9.316C19.6273 9.07333 20.195 8.93467 20.871 8.9C21.417 8.874 21.911 8.85233 22.353 8.835C22.795 8.809 23.159 8.72233 23.445 8.575V9.888C23.3063 9.966 23.0507 10.031 22.678 10.083C22.3053 10.1263 21.768 10.1567 21.066 10.174C20.6587 10.1827 20.3033 10.2303 20 10.317C19.7053 10.4037 19.454 10.5423 19.246 10.733C19.0467 10.9237 18.8863 11.175 18.765 11.487C18.6523 11.7903 18.5787 12.163 18.544 12.605C18.7433 12.1977 19.0553 11.8683 19.48 11.617C19.9133 11.357 20.4333 11.227 21.04 11.227C21.4647 11.227 21.8547 11.3007 22.21 11.448C22.574 11.5867 22.886 11.7947 23.146 12.072C23.406 12.3407 23.6053 12.6743 23.744 13.073C23.8913 13.463 23.965 13.905 23.965 14.399V14.698C23.965 15.2353 23.8783 15.7207 23.705 16.154C23.5403 16.5787 23.3107 16.9383 23.016 17.233C22.7213 17.5277 22.3703 17.753 21.963 17.909C21.5643 18.065 21.1267 18.143 20.65 18.143ZM20.65 16.895C21.2133 16.895 21.664 16.7087 22.002 16.336C22.34 15.9633 22.509 15.4173 22.509 14.698V14.399C22.509 13.7923 22.3357 13.32 21.989 12.982C21.651 12.644 21.2047 12.475 20.65 12.475C20.0953 12.475 19.6447 12.644 19.298 12.982C18.96 13.3113 18.791 13.7837 18.791 14.399V14.698C18.791 15.0447 18.8387 15.3567 18.934 15.634C19.0293 15.9027 19.1593 16.1323 19.324 16.323C19.4973 16.505 19.6967 16.648 19.922 16.752C20.1473 16.8473 20.39 16.895 20.65 16.895ZM27.9264 18.143C26.9904 18.143 26.2668 17.9523 25.7554 17.571C25.2528 17.181 24.9798 16.6307 24.9364 15.92H26.3924C26.4358 16.232 26.5744 16.4747 26.8084 16.648C27.0424 16.8127 27.4064 16.895 27.9004 16.895C28.4898 16.895 28.8971 16.7997 29.1224 16.609C29.3478 16.4183 29.4604 16.18 29.4604 15.894C29.4604 15.634 29.3608 15.4303 29.1614 15.283C28.9708 15.127 28.6328 15.049 28.1474 15.049H27.0164V13.931H28.0564C28.4551 13.931 28.7454 13.8487 28.9274 13.684C29.1094 13.5193 29.2004 13.3113 29.2004 13.06C29.2004 12.8347 29.1051 12.6397 28.9144 12.475C28.7238 12.3017 28.3944 12.215 27.9264 12.215C27.4238 12.215 27.0728 12.2973 26.8734 12.462C26.6828 12.6267 26.5658 12.8477 26.5224 13.125H25.0664C25.1098 12.4663 25.3741 11.942 25.8594 11.552C26.3534 11.162 27.0424 10.967 27.9264 10.967C28.8711 10.967 29.5601 11.1533 29.9934 11.526C30.4354 11.8987 30.6564 12.384 30.6564 12.982C30.6564 13.3113 30.5741 13.6017 30.4094 13.853C30.2534 14.1043 29.9934 14.295 29.6294 14.425C30.1148 14.5463 30.4484 14.75 30.6304 15.036C30.8211 15.322 30.9164 15.6513 30.9164 16.024C30.9164 16.3187 30.8558 16.596 30.7344 16.856C30.6131 17.116 30.4268 17.3413 30.1754 17.532C29.9328 17.7227 29.6208 17.8743 29.2394 17.987C28.8668 18.091 28.4291 18.143 27.9264 18.143ZM35.3385 18.143C34.8618 18.143 34.4155 18.0693 33.9995 17.922C33.5921 17.766 33.2368 17.5407 32.9335 17.246C32.6301 16.9513 32.3918 16.5873 32.2185 16.154C32.0451 15.712 31.9585 15.2007 31.9585 14.62V14.36C31.9585 13.814 32.0451 13.333 32.2185 12.917C32.3918 12.4923 32.6301 12.137 32.9335 11.851C33.2368 11.5563 33.5921 11.3353 33.9995 11.188C34.4155 11.0407 34.8618 10.967 35.3385 10.967C35.8151 10.967 36.2571 11.0407 36.6645 11.188C37.0805 11.3353 37.4401 11.5563 37.7435 11.851C38.0468 12.137 38.2851 12.4923 38.4585 12.917C38.6318 13.333 38.7185 13.814 38.7185 14.36V14.62C38.7185 15.2007 38.6318 15.712 38.4585 16.154C38.2851 16.5873 38.0468 16.9513 37.7435 17.246C37.4401 17.5407 37.0805 17.766 36.6645 17.922C36.2571 18.0693 35.8151 18.143 35.3385 18.143ZM35.3385 16.895C35.5898 16.895 35.8281 16.8517 36.0535 16.765C36.2875 16.6783 36.4911 16.544 36.6645 16.362C36.8465 16.18 36.9895 15.946 37.0935 15.66C37.2061 15.374 37.2625 15.0273 37.2625 14.62V14.36C37.2625 13.9873 37.2061 13.6667 37.0935 13.398C36.9895 13.1293 36.8465 12.9083 36.6645 12.735C36.4911 12.5617 36.2875 12.4317 36.0535 12.345C35.8281 12.2583 35.5898 12.215 35.3385 12.215C35.0871 12.215 34.8445 12.2583 34.6105 12.345C34.3851 12.4317 34.1815 12.5617 33.9995 12.735C33.8261 12.9083 33.6831 13.1293 33.5705 13.398C33.4665 13.6667 33.4145 13.9873 33.4145 14.36V14.62C33.4145 15.0273 33.4665 15.374 33.5705 15.66C33.6831 15.946 33.8261 16.18 33.9995 16.362C34.1815 16.544 34.3851 16.6783 34.6105 16.765C34.8445 16.8517 35.0871 16.895 35.3385 16.895ZM40.1434 11.11H41.4694V12.267C41.6774 11.8683 41.9851 11.552 42.3924 11.318C42.8084 11.084 43.2764 10.967 43.7964 10.967C44.6977 10.967 45.4084 11.2487 45.9284 11.812C46.4484 12.3753 46.7084 13.2247 46.7084 14.36V14.62C46.7084 15.2093 46.6391 15.725 46.5004 16.167C46.3617 16.609 46.1624 16.9773 45.9024 17.272C45.6511 17.558 45.3477 17.7747 44.9924 17.922C44.6371 18.0693 44.2384 18.143 43.7964 18.143C43.3024 18.143 42.8517 18.0347 42.4444 17.818C42.0371 17.6013 41.7467 17.298 41.5734 16.908V20.6H40.1434V11.11ZM43.4584 16.895C43.9957 16.895 44.4291 16.7087 44.7584 16.336C45.0877 15.9633 45.2524 15.3913 45.2524 14.62V14.36C45.2524 13.632 45.0921 13.0947 44.7714 12.748C44.4507 12.3927 44.0131 12.215 43.4584 12.215C43.2157 12.215 42.9817 12.254 42.7564 12.332C42.5311 12.41 42.3274 12.527 42.1454 12.683C41.9721 12.8303 41.8334 13.021 41.7294 13.255C41.6254 13.4803 41.5734 13.7403 41.5734 14.035V14.945C41.5734 15.2743 41.6254 15.5603 41.7294 15.803C41.8334 16.0457 41.9721 16.2493 42.1454 16.414C42.3187 16.5787 42.5181 16.7 42.7434 16.778C42.9687 16.856 43.2071 16.895 43.4584 16.895Z" fill="white"/>
<path d="M53 18.259V7.74104C53 6.96925 53.8372 6.48837 54.5039 6.87726L63.5192 12.1362C64.1807 12.5221 64.1807 13.4779 63.5192 13.8638L54.5039 19.1227C53.8372 19.5116 53 19.0308 53 18.259Z" stroke="white" stroke-width="2"/>
</svg>
