<svg width="18" height="18" viewBox="0 0 18 18" fill="none" xmlns="http://www.w3.org/2000/svg">
<path d="M15 7.54545C15 12.6364 9 17 9 17C9 17 3 12.6364 3 7.54545C3 5.80949 3.63214 4.14463 4.75736 2.91712C5.88258 1.68961 7.4087 1 9 1C10.5913 1 12.1174 1.68961 13.2426 2.91712C14.3679 4.14463 15 5.80949 15 7.54545Z" stroke="#1F59EE" stroke-width="2" stroke-linecap="round" stroke-linejoin="round"/>
<path d="M9 9C10.1046 9 11 8.10457 11 7C11 5.89543 10.1046 5 9 5C7.89543 5 7 5.89543 7 7C7 8.10457 7.89543 9 9 9Z" stroke="#1F59EE" stroke-width="2" stroke-linecap="round" stroke-linejoin="round"/>
</svg>
