<svg width="42" height="40" viewBox="0 0 42 40" fill="none" xmlns="http://www.w3.org/2000/svg">
<path fill-rule="evenodd" clip-rule="evenodd" d="M27.9914 8.92546C27.9914 7.85182 28.375 6.91665 29.1414 6.11946C29.9238 5.35219 30.8664 4.96947 31.9704 4.96947C33.0592 4.96947 33.9944 5.35219 34.7764 6.11946C35.5437 6.91618 35.9264 7.85182 35.9264 8.92546C35.9264 10.0134 35.5437 10.9495 34.7764 11.7315C33.964 12.513 33.0288 12.9049 31.9704 12.9049C30.8816 12.9049 29.9464 12.513 29.1644 11.7315C28.3824 10.9495 27.9914 10.0134 27.9914 8.92546ZM22.4258 11.317L22.4948 27.831L20.1948 27.8545L20.1258 11.3405L22.4258 11.317ZM30.7514 7.75201C30.445 8.05836 30.2914 8.45028 30.2914 8.92546C30.2914 9.40064 30.4524 9.79165 30.7748 10.098C31.1116 10.4356 31.5108 10.6049 31.9708 10.6049C32.4308 10.6049 32.8218 10.4361 33.1443 10.098C33.4658 9.79165 33.6268 9.40064 33.6268 8.92546C33.6268 8.45028 33.4658 8.05836 33.1438 7.75201C32.8366 7.43046 32.4456 7.26946 31.9704 7.26946C31.4952 7.26946 31.0895 7.43046 30.7514 7.75201ZM38.1114 2.646L25.8064 2.32446L5.93485 22.748L18.3774 35.0999L38.6864 14.1925L38.1114 2.646ZM41.0558 15.0895L16.7908 39.998L0.943848 24.5655L24.8638 0.00146484L40.2964 0.415465L41.0558 15.0895ZM26.2438 18.033C25.9517 18.033 25.6914 18.148 25.4614 18.378C25.2466 18.5772 25.1398 18.8458 25.1398 19.183L25.1624 19.2299L25.1398 19.252C25.1398 19.5745 25.2466 19.8505 25.4614 20.0805C25.7066 20.2953 25.9826 20.402 26.2898 20.402C26.6114 20.3868 26.8952 20.2566 27.1408 20.011C27.3708 19.781 27.4858 19.5124 27.4858 19.206C27.4858 18.8845 27.3708 18.6075 27.1408 18.3775C26.9108 18.1475 26.6422 18.0325 26.3358 18.0325L26.2898 18.056L26.2664 18.0325H26.2438V18.033ZM28.7738 16.7455C29.4487 17.4506 29.7854 18.2708 29.7854 19.2065C29.7854 20.1421 29.4487 20.9466 28.7738 21.6215C28.099 22.3266 27.294 22.6799 26.3588 22.6799L26.2664 22.7025C25.3464 22.7025 24.534 22.3657 23.8288 21.6909C23.1692 21.0161 22.8398 20.1876 22.8398 19.2069C22.8398 18.2566 23.1697 17.4359 23.8288 16.7459C24.534 16.0407 25.3542 15.7109 26.2898 15.7569C27.271 15.7408 28.0995 16.0706 28.7738 16.7455ZM16.3308 17.7805C15.9776 17.7805 15.6868 17.8955 15.4568 18.1255C15.242 18.3251 15.1353 18.5928 15.1353 18.9305L15.1578 18.9765L15.1353 18.9999C15.1353 19.3215 15.242 19.5975 15.4568 19.8275C15.702 20.0423 15.978 20.1499 16.2853 20.1499C16.622 20.1499 16.9141 20.0266 17.1593 19.7815C17.3741 19.5666 17.4808 19.2828 17.4808 18.9305C17.4657 18.6232 17.3424 18.3555 17.1124 18.1255C16.8824 17.8955 16.6298 17.7805 16.3543 17.7805H16.3308ZM19.7574 18.907C19.7887 19.9034 19.4662 20.7318 18.7914 21.391V21.4145C18.1014 22.1045 17.2812 22.4495 16.3304 22.4495H16.2388C15.334 22.4495 14.529 22.1118 13.8238 21.437C13.1642 20.7622 12.8348 19.9346 12.8348 18.953C12.8348 18.0026 13.1647 17.182 13.8238 16.492C14.529 15.8172 15.3492 15.4805 16.2848 15.4805C17.2048 15.4653 18.025 15.802 18.7458 16.492C19.4202 17.1668 19.7574 17.9718 19.7574 18.907ZM17.7338 35.766L5.29085 23.4155L4.18685 24.542L16.7678 36.7555L17.7338 35.766Z" fill="#1F59EE"/>
</svg>
