<svg width="42" height="30" viewBox="0 0 42 30" fill="none" xmlns="http://www.w3.org/2000/svg">
<path fill-rule="evenodd" clip-rule="evenodd" d="M6.48683 7.46753V8.38753H2.92183V24.2575H6.53283C6.71683 23.5519 7.08483 22.9235 7.63683 22.3715C8.49565 21.5127 9.53065 21.0835 10.7418 21.0835C11.9222 21.0835 12.9346 21.5054 13.7778 22.3485C14.3611 22.9465 14.7365 23.5832 14.9048 24.2575H22.9778V18.7835H19.1138V17.8635H22.9778V8.08853H23.8978V24.2575H26.9113C27.0948 23.5519 27.4628 22.9235 28.0148 22.3715C28.8732 21.5127 29.9013 21.0835 31.0968 21.0835C32.2924 21.0835 33.3122 21.5054 34.1558 22.3485C34.7382 22.9465 35.114 23.5832 35.2824 24.2575H39.0774V17.2655L28.4744 6.66253H22.2878V2.52253H2.92183V7.46753H6.48683ZM12.7428 25.4535V25.4075C12.7428 24.8555 12.5432 24.3804 12.1448 23.9815C11.7465 23.5827 11.2782 23.3835 10.7418 23.3835C10.1746 23.3835 9.67647 23.5832 9.24683 23.9815C8.86319 24.3955 8.67183 24.8707 8.67183 25.4075C8.67183 25.9904 8.86319 26.4729 9.24683 26.8565C9.69165 27.2705 10.1898 27.4775 10.7418 27.4775C11.2478 27.4775 11.7156 27.2779 12.1448 26.8795C12.5432 26.4807 12.7428 26.0055 12.7428 25.4535ZM6.50983 26.5575H0.621826V0.222534H24.5878V4.36253H29.4178L41.3778 16.3225V26.5575H35.2828C35.0993 27.3087 34.7161 27.9605 34.1328 28.5125C33.3205 29.3557 32.308 29.7775 31.0968 29.7775C29.9008 29.7775 28.8732 29.3479 28.0148 28.4895C27.478 27.9527 27.1026 27.3092 26.8878 26.5575H14.9048C14.7213 27.2935 14.3376 27.9454 13.7548 28.5125C12.942 29.3557 11.9378 29.7775 10.7418 29.7775C9.53065 29.7775 8.49565 29.3479 7.63683 28.4895C7.10047 27.9527 6.72465 27.3087 6.50983 26.5575ZM25.3928 8.08853V14.6435H32.0628V15.5635H24.4728V8.08853H25.3928ZM33.0978 14.6435H34.7078V15.5635H33.0978V14.6435ZM33.1438 25.4075C33.1438 24.8707 32.9368 24.3955 32.5224 23.9815C32.124 23.5827 31.6488 23.3835 31.0964 23.3835C30.5439 23.3835 30.0535 23.5832 29.6244 23.9815C29.2564 24.3804 29.0724 24.8555 29.0724 25.4075C29.0724 26.0055 29.2564 26.4885 29.6244 26.8565C30.0692 27.2705 30.56 27.4775 31.0964 27.4775C31.6327 27.4775 32.1084 27.2779 32.5224 26.8795C32.9364 26.4655 33.1438 25.9904 33.1438 25.4535V25.4075Z" fill="#1F59EE"/>
</svg>
