<svg width="42" height="42" viewBox="0 0 42 42" fill="none" xmlns="http://www.w3.org/2000/svg">
<path fill-rule="evenodd" clip-rule="evenodd" d="M20.6658 0.967008C21.0798 1.33547 21.4791 1.77201 21.8627 2.27801C22.4906 3.09129 22.7592 3.94183 22.6677 4.83147C22.6677 5.15301 22.6139 5.42947 22.5058 5.65947C22.1534 6.61029 21.3406 7.81411 20.0682 9.27093C19.071 10.4513 18.5346 11.3561 18.4582 11.9845C18.4582 12.1528 18.496 12.3451 18.5732 12.5595L18.9872 13.6409L16.8248 14.4459L16.4338 13.3645C16.219 12.8125 16.1348 12.2761 16.1803 11.7545C16.288 10.6965 17.0005 9.37029 18.3193 7.77593C19.4233 6.51829 20.0982 5.54447 20.3433 4.85447L20.3893 4.71647V4.67047C20.4197 4.34801 20.2978 4.01083 20.0218 3.65801C19.7449 3.29047 19.4468 2.96801 19.1243 2.69201L18.2733 1.93301L19.7918 0.208008L20.6658 0.967008ZM15.7208 7.59147L14.8477 8.35047C13.9277 9.16283 13.4056 9.95219 13.2837 10.719C13.1912 11.2558 13.3062 11.8225 13.6287 12.421L14.1577 13.4325L12.1337 14.514L11.5812 13.502C11.0449 12.4753 10.8452 11.4555 10.9837 10.443C11.1833 9.10947 11.9727 7.83665 13.3527 6.62547L14.2037 5.86647L15.7208 7.59147ZM8.68371 23.829V28.498H15.2152V23.829L11.9492 20.609L8.68371 23.829ZM16.1352 23.438V29.418H7.78625L7.74025 23.438L11.5352 19.7355V17.297H3.50871C3.10989 18.5546 2.91025 19.9724 2.91025 21.552C2.91025 25.4772 4.26771 28.8053 6.98125 31.5335C7.39525 31.9475 7.77889 32.3008 8.13125 32.592C10.6925 34.662 13.6287 35.697 16.9402 35.697C20.2835 35.697 23.2275 34.662 25.7727 32.592C25.8642 32.5156 25.9641 32.431 26.0708 32.3385H21.7698V31.4185H27.0372L27.3588 31.097C28.1555 30.2074 28.8078 29.3108 29.3138 28.406L29.9348 27.1635C30.0733 26.8724 30.2034 26.5508 30.3258 26.1975H23.6098V25.2775H30.5788L30.6248 25.0015C30.916 23.8667 31.0622 22.7167 31.0622 21.5515V21.0685C31.0153 20.0869 30.8783 19.1669 30.6483 18.3085C30.5098 17.7414 30.4182 17.4042 30.3722 17.2965H12.4552V19.735L12.6627 19.9415L12.6158 19.9875L16.1352 23.438ZM1.62271 15.733L1.89871 14.997H32.0513L32.1663 15.388H32.1897C32.6801 15.2656 33.2551 15.2045 33.9147 15.2045C35.9999 15.2045 37.7787 15.963 39.2507 17.4815C40.7844 19.1375 41.5507 21.0313 41.5507 23.1625C41.5507 25.3709 40.7917 27.279 39.2742 28.889C37.7865 30.499 36.0004 31.304 33.9152 31.304C32.7652 31.304 31.6915 31.0515 30.6952 30.5459C30.1892 31.2819 29.645 31.9788 29.0617 32.6385L28.5557 33.1675C27.9734 33.719 27.529 34.1178 27.2217 34.3635C26.379 35.0383 25.5202 35.6133 24.6457 36.0885H30.8792C31.6607 36.0885 32.3282 36.3571 32.8802 36.8935L32.9492 36.9395C33.4703 37.5071 33.7307 38.1819 33.7307 38.9635C33.7307 39.7919 33.4547 40.4667 32.9032 40.9875C32.3199 41.5238 31.6455 41.7925 30.8792 41.7925H3.37025C2.57353 41.7925 1.89043 41.5238 1.32371 40.9875C0.740427 40.4511 0.449707 39.7763 0.449707 38.9635C0.449707 38.1511 0.740887 37.4611 1.32371 36.8935C1.86007 36.3571 2.54271 36.0885 3.37025 36.0885H9.25871C8.38471 35.6133 7.52543 35.0383 6.68271 34.3635C6.37543 34.1183 5.93061 33.7195 5.34871 33.1675C2.18943 29.9622 0.610247 26.0908 0.610247 21.552C0.610247 19.4056 0.947887 17.4658 1.62271 15.733ZM32.8558 17.5965L32.8792 17.7805C33.1396 18.7768 33.2932 19.8422 33.3392 20.977L33.3627 21.552C33.3627 22.9016 33.1939 24.2356 32.8558 25.5535L32.7642 26.037C32.5802 26.7574 32.3346 27.4474 32.0282 28.107L31.8208 28.5435C32.4804 28.8508 33.1782 29.0035 33.9142 29.0035C35.3402 29.0035 36.5675 28.4446 37.5942 27.3255C38.6982 26.1603 39.2502 24.772 39.2502 23.162C39.2502 21.644 38.6987 20.2718 37.5942 19.0455C36.5675 18.0178 35.3402 17.504 33.9142 17.504C33.5002 17.504 33.1479 17.5353 32.8558 17.5965ZM17.2627 32.3385V31.4185H19.4937V32.3385H17.2627ZM31.4302 38.963C31.4302 38.779 31.3843 38.6415 31.2927 38.549C31.1851 38.4423 31.0475 38.388 30.8787 38.388H3.37025C3.18625 38.388 3.04043 38.4418 2.93371 38.549C2.81043 38.6723 2.74971 38.8103 2.74971 38.963C2.74971 39.1015 2.78835 39.2082 2.86471 39.2855L2.93371 39.3315C3.04043 39.4382 3.18625 39.4925 3.37025 39.4925H30.8787C31.0314 39.4925 31.1851 39.4313 31.3387 39.3085C31.3994 39.2468 31.4302 39.1318 31.4302 38.963Z" fill="#1F59EE"/>
</svg>
