<svg width="168" height="38" viewBox="0 0 168 38" fill="none" xmlns="http://www.w3.org/2000/svg">
<g clip-path="url(#clip0)">
<path d="M0 38.7701H38.5167V0H0V38.7701ZM24.6875 2.9609C31.4954 5.20678 36.4152 11.7032 36.4337 19.3777C36.4521 26.9273 31.6318 33.4082 24.6875 35.803V2.9609ZM19.2522 2.08224C20.4821 2.08224 21.7922 2.24743 22.8834 2.46612C22.8834 11.2496 14.4434 18.4781 5.73281 18.4781L2.09075 18.4727C2.688 9.46898 10.09 2.08224 19.2522 2.08224ZM5.73589 20.3067C14.4449 20.3067 22.8819 27.5275 22.8819 36.3024C21.7922 36.5265 20.4166 36.6933 19.2522 36.6933C10.0869 36.6809 2.43446 29.2716 2.08844 20.3067H5.73589ZM51.4103 22.7915V20.3478H59.425V17.2326H51.4088V12.6967H59.9359V9.58841H48.1281V22.6503C48.1281 25.9525 49.5253 28.2107 52.8052 28.6745C52.8707 28.6908 52.9354 28.7032 52.9955 28.7047H53.0549C53.3909 28.7427 53.7338 28.7676 54.0937 28.7676H60.1633V25.6632H54.1207C53.078 25.6632 51.4103 25.1451 51.4103 22.7915ZM62.4945 28.7722H65.7766V9.58376H62.4945V28.7722ZM75.412 14.4586C71.2636 14.4586 68.1587 17.335 68.1587 21.8136V21.9244C68.1587 26.2937 71.1534 29.1142 75.4944 29.1142C77.5821 29.1142 79.5326 28.5341 81.3182 26.6248L79.3399 24.6899C78.2957 25.7407 77.2792 26.2937 75.6039 26.2937C73.1586 26.2937 71.5379 24.8559 71.4277 22.6433H82.1967C82.2514 22.0904 82.2514 21.4824 82.2514 21.4824C82.253 17.5831 79.5326 14.4586 75.412 14.4586ZM71.511 20.3207C71.6481 18.6332 73.352 17.2784 75.412 17.2784C77.3347 17.2784 78.9007 18.6611 78.9007 20.3207H71.511ZM91.4752 17.4172C92.9587 17.4172 94.0584 17.9709 94.9917 18.938L97.0246 16.8084C95.4309 15.0938 93.5359 14.4028 91.4752 14.4028C87.2991 14.4028 83.9476 17.5273 83.9476 21.7856C83.9476 26.044 87.2991 29.1693 91.4752 29.1693C93.5359 29.1693 95.4317 28.4783 97.0246 26.7636L94.9917 24.6341C94.0584 25.6019 92.9587 26.1549 91.4752 26.1549C89.057 26.1549 87.2167 24.3014 87.2167 21.7856C87.2167 19.2699 89.057 17.4172 91.4752 17.4172ZM102.35 22.7969H102.346V17.898H105.331V14.8968H102.35V9.58453H99.0676V22.9916L99.0768 22.9908C99.1709 26.1083 100.578 28.2317 103.745 28.6791C103.81 28.6954 103.875 28.7078 103.935 28.7086H103.994C104.33 28.7466 104.673 28.7722 105.033 28.7722H105.381L105.392 25.6678H105.06C104.017 25.6678 102.35 25.1506 102.35 22.7969ZM111.348 16.9604V14.8976H108.093V28.7722H111.348V21.4762C111.348 19.1916 112.797 17.7592 115.067 17.7592C115.586 17.7592 116.052 17.8135 116.435 17.8972V14.7045C116.109 14.6536 115.78 14.6259 115.451 14.6215C113.481 14.6222 112.004 15.5311 111.348 16.9604ZM124.46 14.4842C120.275 14.4842 116.937 17.6762 116.937 21.8345C116.937 25.9905 120.275 29.1848 124.46 29.1848C128.616 29.1848 131.982 25.9905 131.982 21.8345C131.981 17.677 128.616 14.4842 124.46 14.4842ZM124.46 26.1843C122.026 26.1843 120.194 24.2836 120.194 21.8345C120.194 19.3839 122.026 17.4847 124.46 17.4847C126.868 17.4847 128.727 19.3839 128.727 21.8345C128.726 24.2843 126.868 26.1843 124.46 26.1843ZM133.999 28.7722H137.283V9.58376H133.999V28.7722ZM149.121 22.9629C149.121 25.1645 147.835 26.1021 146.111 26.1021C144.388 26.1021 143.104 25.1645 143.104 22.9923V14.8976H139.794V23.2669C139.794 27.2313 142.665 29.1305 146.084 29.1305C149.531 29.1305 152.429 27.2033 152.429 23.1839V14.8976H149.121V22.9629ZM164.848 24.3355L162.778 21.4219L165.341 17.9073L167.536 14.8976H163.953L160.971 19.0543L157.962 14.8976H154.407L156.446 17.7041L159.166 21.4491L156.315 25.4453L153.942 28.7722H157.47L160.97 23.8718L164.472 28.7722H168.001L164.848 24.3355Z" fill="white"/>
</g>
<defs>
<clipPath id="clip0">
<rect width="168" height="38" fill="white"/>
</clipPath>
</defs>
</svg>
