<svg width="20" height="12" viewBox="0 0 20 12" fill="none" xmlns="http://www.w3.org/2000/svg">
<path fill-rule="evenodd" clip-rule="evenodd" d="M19.5411 0.812561C19.6801 0.344175 19.5411 0 18.8794 0H16.6914C16.135 0 15.8786 0.297316 15.7395 0.625168C15.7395 0.625168 14.6268 3.3652 13.0505 5.14503C12.5406 5.66024 12.3087 5.82416 12.0306 5.82416C11.8915 5.82416 11.6829 5.66024 11.6829 5.19189V0.812561C11.6829 0.250497 11.5287 0 11.0651 0H7.62678C7.27911 0 7.07003 0.260867 7.07003 0.5081C7.07003 1.04093 7.85812 1.1638 7.93935 2.66264V5.91788C7.93935 6.63158 7.81177 6.76097 7.5336 6.76097C6.79186 6.76097 4.98756 4.0087 3.91744 0.85938C3.70773 0.247261 3.49738 0 2.93819 0H0.750182C0.125037 0 0 0.297316 0 0.625168C0 1.21066 0.741784 4.11462 3.45387 7.95531C5.26191 10.5782 7.80932 12 10.1274 12C11.5182 12 11.6902 11.6842 11.6902 11.1403V9.15789C11.6902 8.52632 11.822 8.40027 12.2624 8.40027C12.5869 8.40027 13.1433 8.5642 14.4414 9.82882C15.9249 11.3276 16.1695 12 17.004 12H19.192C19.8171 12 20.1297 11.6842 19.9494 11.061C19.752 10.4399 19.0437 9.53876 18.1039 8.47052C17.5939 7.86164 16.8289 7.20593 16.5971 6.878C16.2726 6.45651 16.3653 6.26912 16.5971 5.89445C16.5971 5.89445 19.2629 2.10058 19.5411 0.812561Z" fill="#C4CFE4"/>
</svg>
