<svg width="149" height="56" viewBox="0 0 149 56" fill="none" xmlns="http://www.w3.org/2000/svg">
<path d="M28.17 0H20.76V13.7H14.07C11.2857 13.702 8.56443 14.5294 6.2503 16.0778C3.93618 17.6261 2.13306 19.8258 1.06891 22.3987C0.00476587 24.9717 -0.272639 27.8024 0.27177 30.533C0.816179 33.2636 2.15796 35.7715 4.12748 37.7396C6.097 39.7077 8.60583 41.0477 11.3368 41.5902C14.0678 42.1327 16.8983 41.8532 19.4705 40.7873C22.0427 39.7213 24.2411 37.9166 25.7878 35.6014C27.3345 33.2862 28.16 30.5643 28.16 27.78V13.69L28.17 0ZM20.76 27.79C20.7561 29.1123 20.3603 30.4038 19.6228 31.5013C18.8853 32.5988 17.8391 33.4532 16.6163 33.9565C15.3936 34.4598 14.049 34.5894 12.7526 34.329C11.4562 34.0686 10.2661 33.4299 9.33244 32.4935C8.39882 31.5571 7.76365 30.365 7.50713 29.0678C7.25061 27.7706 7.38426 26.4265 7.89119 25.2052C8.39812 23.984 9.2556 22.9403 10.3553 22.2061C11.4551 21.4719 12.7477 21.08 14.07 21.08H20.75L20.76 27.79ZM88.85 27.78C88.852 24.9992 89.6785 22.2814 91.2251 19.9704C92.7717 17.6593 94.9688 15.8588 97.5387 14.7964C100.109 13.7341 102.936 13.4577 105.663 14.0021C108.39 14.5466 110.894 15.8874 112.859 17.8552C114.824 19.8229 116.161 22.3291 116.702 25.0568C117.242 27.7846 116.962 30.6114 115.896 33.1798C114.83 35.7481 113.026 37.9427 110.713 39.486C108.4 41.0293 105.681 41.852 102.9 41.85C99.1719 41.8447 95.5983 40.36 92.9639 37.7219C90.3296 35.0839 88.85 31.5081 88.85 27.78ZM102.85 34.5C104.18 34.502 105.48 34.1095 106.586 33.3723C107.693 32.6351 108.555 31.5863 109.066 30.3586C109.576 29.1308 109.71 27.7793 109.452 26.4751C109.194 25.1709 108.555 23.9726 107.615 23.0318C106.676 22.091 105.479 21.45 104.175 21.1899C102.871 20.9298 101.519 21.0623 100.291 21.5706C99.0622 22.0789 98.0121 22.9402 97.2732 24.0455C96.5344 25.1508 96.14 26.4505 96.14 27.78C96.1387 28.662 96.3113 29.5356 96.6479 30.3509C96.9845 31.1661 97.4786 31.907 98.1018 32.5312C98.725 33.1553 99.4651 33.6504 100.28 33.9883C101.095 34.3261 101.968 34.5 102.85 34.5ZM140.6 27.79C140.6 26.0276 139.9 24.3375 138.654 23.0913C137.408 21.8451 135.717 21.145 133.955 21.145C132.193 21.145 130.502 21.8451 129.256 23.0913C128.01 24.3375 127.31 26.0276 127.31 27.79V41.29H119.91V27.79C119.91 24.0637 121.39 20.49 124.025 17.8552C126.66 15.2203 130.234 13.74 133.96 13.74C137.686 13.74 141.26 15.2203 143.895 17.8552C146.53 20.49 148.01 24.0637 148.01 27.79V41.27H140.6V27.79ZM71.54 22.89C70.47 22.19 70.82 20.89 72.54 20.4C74.84 19.78 78.63 20.29 82.02 21.78L85.53 17C84.01 15.73 80.75 14.1 75.91 13.79C75.91 13.79 67.83 12.79 64.55 18.93C64.55 18.93 61.65 24.67 67.37 28.25C70.84 30.42 76.88 31.19 78.71 32.25C80.27 33.14 79.71 34.79 77.45 35.32C73.62 36.18 68.45 34 66.74 32.69L63.21 37.59C66.2017 39.852 69.7308 41.296 73.45 41.78C73.45 41.78 81.05 43.1 85.24 37.85C86.02 36.85 89.46 30.42 82.55 26.74C79.12 24.91 73.38 24.08 71.55 22.9L71.54 22.89ZM37.01 46.79C37.32 46.98 40.77 49.34 44.12 49.42C52.12 49.59 52.68 41.2 52.68 39.21C50.8315 40.8392 48.4728 41.7727 46.01 41.85C44.1779 41.8725 42.3596 41.5308 40.6606 40.8446C38.9617 40.1584 37.4161 39.1415 36.1135 37.8529C34.811 36.5643 33.7774 35.0297 33.073 33.3382C32.3685 31.6468 32.0072 29.8323 32.01 28V14.24H39.41V27.97C39.3753 28.863 39.5213 29.7538 39.8391 30.589C40.1569 31.4243 40.6401 32.1868 41.2596 32.8308C41.8791 33.4749 42.6223 33.9873 43.4446 34.3372C44.2669 34.6872 45.1513 34.8676 46.045 34.8676C46.9387 34.8676 47.8231 34.6872 48.6454 34.3372C49.4677 33.9873 50.2109 33.4749 50.8304 32.8308C51.45 32.1868 51.9331 31.4243 52.2509 30.589C52.5687 29.7538 52.7147 28.863 52.68 27.97V14.24H60.09V28C60.09 40.19 60.69 52.7 48.84 55.53C46.1447 56.1327 43.3471 56.1099 40.662 55.4633C37.9768 54.8167 35.4755 53.5635 33.35 51.8L37.01 46.79Z" fill="#091433"/>
</svg>
