<svg width="155" height="73" viewBox="0 0 155 73" fill="none" xmlns="http://www.w3.org/2000/svg">
<path fill-rule="evenodd" clip-rule="evenodd" d="M77.3378 5.15667H77.2321C59.477 5.15667 32.5274 8.12012 10.175 13.8354C7.26866 14.5762 4.67938 16.3225 4.67938 19.3389V39.8185V40.136V40.2419V40.4535V40.5065C4.99644 43.0995 7.37435 44.7929 10.1222 45.3221C32.1575 49.5027 59.4242 52.8895 77.2849 52.8895H77.7605C98.6333 52.8895 122.941 49.8731 145.082 45.3221C148.041 44.74 150.577 42.8349 150.577 39.8185V19.3389C150.577 17.2751 149.468 15.8463 147.83 14.8937C147.46 14.6291 146.984 14.4175 146.561 14.2587H146.509C146.297 14.1529 146.033 14.047 145.822 13.9941H145.769C145.592 13.9055 145.378 13.8539 145.188 13.8084C145.152 13.7996 145.116 13.791 145.082 13.7824C122.571 7.96137 94.6172 5.15667 77.3378 5.15667ZM9.0653 9.65477C32.9501 3.5691 60.5339 0.870239 77.2321 0.870239H77.3906C94.1945 0.870239 122.888 3.62202 146.139 9.65477C146.456 9.70769 146.773 9.81353 147.09 9.91936H147.143L148.094 10.2369H148.147C148.781 10.5015 149.362 10.819 149.943 11.1365L149.996 11.1894L150.049 11.2423C153.167 13.0945 154.858 16.005 154.858 19.3389V39.8185C154.858 44.6341 151.37 48.4443 145.927 49.5556C121.778 54.477 97.5764 57.2288 77.7605 57.2288H77.2849C60.3225 57.1759 33.637 54.1595 9.27667 49.5556C4.36233 48.6031 0.980409 45.4279 0.346299 41.1944V41.0357V40.8769C0.293457 40.7711 0.293457 40.6652 0.293457 40.5594V40.4006V39.8185V19.3389C0.293457 14.6291 3.56969 11.0307 9.0653 9.65477ZM24.1782 35.9025H30.4136V32.7803H24.2311C24.2311 31.1398 24.8652 29.5522 26.0277 28.388C27.1903 27.2238 28.7755 26.5888 30.4136 26.5888H36.5962V35.9025C36.5962 39.3422 33.8484 42.1469 30.4136 42.1469H24.1782C19.7395 42.1469 15.6706 39.7656 13.4512 35.9025C11.9716 33.4153 11.496 30.5048 11.9188 27.753C13.2927 26.7475 14.9308 26.0067 16.7274 25.4246C17.9957 25.0541 19.3167 24.7366 20.6378 24.5779C19.898 25.1071 19.2639 25.795 18.7883 26.5888C17.6786 28.4939 17.6786 30.8752 18.7883 32.7803C19.898 34.7383 21.9589 35.9025 24.1782 35.9025ZM16.4632 24.525C18.9468 23.7841 21.6946 23.4666 24.3896 23.5195V23.4666H30.4136C33.7956 23.4666 36.5962 20.7148 36.5962 17.2751H24.1782C19.7395 17.2751 15.6706 19.6564 13.4512 23.5195C12.9228 24.4191 12.5001 25.4246 12.2358 26.43C13.5041 25.6362 14.9308 25.0012 16.4632 24.525ZM117.815 20.9265C113.376 25.3717 112.954 32.357 116.758 37.3313C120.563 42.3057 127.485 43.6287 132.875 40.4536L134.619 42.1999H143.391L137.261 36.0613C140.432 30.6636 139.111 23.7312 134.143 19.921C129.282 16.058 122.254 16.4813 117.815 20.9265ZM126.64 35.9025C123.205 35.9025 120.457 33.0978 120.457 29.711C120.457 26.2713 123.258 23.5195 126.64 23.5195C130.075 23.5195 132.822 26.3242 132.822 29.711C132.822 33.1508 130.022 35.9025 126.64 35.9025ZM92.5039 35.9025H111.104C111.104 39.3422 108.304 42.1469 104.922 42.1469H86.3213V23.4666C86.3213 21.8261 86.9554 20.2385 88.118 19.0743C89.2805 17.9101 90.8658 17.2751 92.5039 17.2751H111.104C111.104 20.6619 108.357 23.4666 104.922 23.4666H92.5039V26.5888H111.104C111.104 29.9756 108.357 32.7803 104.922 32.7803H92.5039V35.9025ZM75.3826 35.9027V23.5196H78.5003C81.9351 23.5196 84.6829 20.7149 84.6829 17.3281H66.0823C64.4442 17.3281 62.8589 17.9632 61.6964 19.1274C60.5339 20.2916 59.8998 21.8792 59.8998 23.5196H69.2V42.1471C72.6348 42.1471 75.3826 39.3424 75.3826 35.9027ZM58.3143 26.6418C58.3143 30.0286 55.5665 32.8333 52.1317 32.8333H39.7666C39.7666 31.1928 40.4007 29.6052 41.5632 28.441C42.7258 27.2768 44.311 26.6418 45.9492 26.6418H58.3143ZM8.16671 65.4311C10.8088 66.0132 12.2884 64.849 12.4998 63.7906C12.6583 62.9969 12.2884 62.5735 11.7072 62.4147C11.6015 62.4147 11.4958 62.4147 11.4429 62.5206C10.9145 63.3673 9.85767 63.6848 8.74798 63.4731C7.10986 63.1027 6.21154 61.6739 6.58144 59.8746C6.95133 58.0754 8.37808 57.1229 9.96335 57.4404C10.9145 57.6521 11.7072 58.2342 12.0242 59.1338C12.0771 59.2396 12.1827 59.3455 12.3413 59.3984C12.8168 59.5042 13.3981 59.1338 13.5566 58.3929C13.7152 57.5991 12.8697 55.9586 10.2804 55.4295C7.32123 54.7944 4.89048 56.4878 4.25637 59.3984C3.6751 62.3618 5.26038 64.849 8.16671 65.4311ZM16.3044 66.7541C15.776 66.6483 15.3533 66.5424 15.0362 66.3307C14.7192 66.1191 14.5078 65.9074 14.3493 65.5899C14.1908 65.3253 14.0851 65.0078 14.0851 64.6903C14.0851 64.3727 14.0851 64.0552 14.1379 63.7377L15.3004 56.4878L17.467 56.8054L16.3044 63.8965C16.2516 64.2669 16.3044 64.4786 16.463 64.6373C16.6215 64.7961 16.8329 64.9019 17.0971 64.9548L20.6375 65.537C20.7432 65.537 20.7961 65.5899 20.8489 65.6428C20.9017 65.6957 20.9017 65.7486 20.8489 65.9074L20.6375 67.1774C20.5847 67.3891 20.479 67.442 20.3205 67.442L16.3044 66.7541ZM36.4903 67.495L33.2669 67.0716L32.3686 69.0825L30.1492 68.765L34.3237 60.0334C34.3569 59.9338 34.4109 59.8549 34.4596 59.7839L34.4596 59.7839C34.4884 59.7417 34.5154 59.7024 34.5351 59.663C34.5879 59.5571 34.6936 59.5042 34.7993 59.4513C34.8521 59.4248 34.905 59.4116 34.9578 59.3984C35.0107 59.3851 35.0635 59.3719 35.1164 59.3455H35.4863L36.3317 59.4513C36.419 59.4513 36.5063 59.4673 36.5847 59.4818C36.6488 59.4935 36.707 59.5042 36.7545 59.5042C36.8602 59.5042 36.9658 59.5571 37.0187 59.663C37.0715 59.7159 37.1772 59.8217 37.2301 59.9276C37.2829 60.0334 37.3357 60.1922 37.3357 60.3509L39.1852 69.8763L36.913 69.6117L36.4903 67.495ZM34.0067 65.3782L36.2261 65.6428L35.909 63.7906L35.6448 61.6739H35.5391L34.7465 63.6319L34.0067 65.3782ZM43.5183 64.214L42.7785 70.3526L40.6648 70.088L41.7217 61.1976C41.7745 60.8272 41.8802 60.5626 41.9859 60.4567C42.1444 60.3509 42.4086 60.298 42.7257 60.298L43.3069 60.3509C43.3942 60.3509 43.4655 60.367 43.5295 60.3814C43.5818 60.3931 43.6293 60.4038 43.6768 60.4038C43.7297 60.4303 43.7693 60.4435 43.8089 60.4567C43.8486 60.47 43.8882 60.4832 43.941 60.5097L44.1524 60.7213C44.2053 60.8272 44.2581 60.933 44.3638 61.0918L46.319 65.0607L47.323 67.1245H47.3758L48.1156 60.933L50.2293 61.1976L49.1724 70.1409C49.1196 70.4584 49.0668 70.6701 48.9082 70.8288C48.7497 70.9876 48.4855 71.0405 48.1684 70.9876L47.5872 70.9347C47.4999 70.9347 47.4287 70.9187 47.3646 70.9043L47.3646 70.9042C47.3123 70.8925 47.2648 70.8818 47.2173 70.8818C47.1644 70.8553 47.1248 70.8421 47.0852 70.8288C47.0455 70.8156 47.0059 70.8024 46.9531 70.7759L46.7417 70.5642C46.6889 70.4584 46.636 70.3526 46.5303 70.1938L44.6808 66.4895L43.5712 64.214H43.5183ZM77.3903 72.9985C80.0853 73.0514 81.3006 71.6755 81.3535 70.5642C81.3535 69.7705 80.8779 69.4 80.2966 69.4C80.191 69.4 80.0853 69.453 80.0324 69.5588C79.6625 70.5113 78.7114 71.0405 77.6017 70.9876C75.9107 70.9876 74.7482 69.7176 74.7482 67.8654C74.7482 66.0132 75.9636 64.7961 77.6017 64.7961C78.6057 64.7961 79.4512 65.2194 79.9267 66.0661C79.9796 66.172 80.1381 66.2249 80.2966 66.2778C80.7722 66.2778 81.3007 65.8016 81.3007 65.0607C81.3007 64.2669 80.1381 62.8381 77.5488 62.7852C74.5368 62.7323 72.4231 64.849 72.4231 67.8654C72.3703 70.8288 74.4311 72.9985 77.3903 72.9985ZM95.6738 66.1191L95.683 66.2534L95.6209 66.172L95.6738 66.1191ZM95.683 66.2534L96.0965 72.3106L93.9828 72.4693L93.3487 63.526C93.2959 63.1556 93.3487 62.891 93.5073 62.7323C93.6129 62.5735 93.8772 62.4677 94.1942 62.4677L94.7755 62.4147H95.1454C95.2073 62.4147 95.2692 62.4329 95.3205 62.448C95.3567 62.4586 95.3877 62.4677 95.4096 62.4677C95.436 62.4941 95.4756 62.5206 95.5153 62.547C95.5549 62.5735 95.5945 62.6 95.6209 62.6264C95.6738 62.7322 95.7794 62.8381 95.8851 62.9439L95.8852 62.9439L98.5801 66.4366L99.954 68.2887H100.007L99.5313 62.0972L101.645 61.9385L102.279 70.8818C102.279 71.1993 102.279 71.4109 102.121 71.6226C102.015 71.7814 101.751 71.8872 101.381 71.9401L100.8 71.9931H100.43C100.368 71.9931 100.306 71.9749 100.255 71.9599C100.218 71.9492 100.187 71.9401 100.165 71.9401C100.06 71.8872 100.007 71.8343 99.9541 71.7814L99.954 71.7814C99.9012 71.7285 99.7955 71.6226 99.6898 71.4639L97.1534 68.1829L95.683 66.2534ZM108.62 69.3471C106.929 69.5588 105.661 68.3417 105.45 66.4895C105.238 64.5844 106.242 63.2615 107.933 63.0498C109.571 62.8381 110.892 64.0023 111.104 65.8545C111.315 67.7596 110.311 69.1884 108.62 69.3471ZM108.832 71.358C111.791 71.0405 113.64 68.6063 113.27 65.5899C112.953 62.6264 110.628 60.7213 107.669 61.0918C104.763 61.4093 102.86 63.7906 103.177 66.7541C103.547 69.7705 105.925 71.7285 108.832 71.358ZM118.079 70.0351C117.551 70.088 117.128 70.088 116.758 69.9821C116.388 69.8763 116.124 69.7175 115.86 69.5059C115.648 69.2942 115.437 69.0296 115.331 68.7121C115.225 68.3946 115.12 68.0771 115.067 67.7596L114.063 60.5097L116.229 60.1922L117.181 67.2833C117.234 67.6537 117.339 67.8654 117.551 67.9712C117.762 68.0771 117.973 68.0771 118.238 68.0771L122.095 67.5479L122.359 69.4L118.079 70.0351ZM127.696 66.807C126.058 67.0716 124.684 65.9074 124.42 64.0552C124.156 62.2031 125.107 60.7743 126.745 60.5626C128.383 60.298 129.757 61.4093 130.021 63.2615C130.338 65.0607 129.387 66.5424 127.696 66.807ZM128.013 68.8179C130.973 68.3946 132.716 65.9074 132.241 62.891C131.818 59.9276 129.44 58.1283 126.481 58.6046C123.575 59.0279 121.778 61.4622 122.201 64.4257C122.676 67.3891 125.054 69.2413 128.013 68.8179ZM147.829 59.2925L148.252 57.017L148.728 54.9003C148.728 54.7944 148.78 54.7415 148.833 54.6886C148.886 54.6357 148.939 54.5828 149.045 54.5828L150.788 54.1594C150.894 54.1065 151 54.1594 151 54.2123V54.3711L149.309 60.9859L150.207 64.5844L148.094 65.1136L147.248 61.4622L142.651 56.382C142.598 56.3291 142.598 56.2762 142.598 56.2232C142.598 56.1703 142.651 56.1174 142.756 56.0645L144.5 55.6411C144.606 55.5882 144.712 55.5882 144.764 55.6411L144.976 55.8528L146.35 57.5462L147.724 59.2925H147.829ZM138.582 64.5317L140.96 64.1084L140.748 62.5737L138.37 62.9971C138.106 61.727 139.11 60.457 140.326 60.2453L142.439 59.8749L143.179 63.5263C143.443 64.8492 142.756 66.0664 141.435 66.331L139.057 66.7543C137.367 67.0718 135.623 66.4368 134.513 65.1138C133.773 64.2142 133.403 63.4204 133.403 62.3091C133.879 61.7799 134.46 61.3566 135.094 61.0391C135.517 60.7745 136.045 60.5628 136.521 60.404C136.151 60.8803 135.887 61.4095 135.834 61.8858C135.623 63.3675 137.049 64.6905 138.582 64.5317ZM133.298 61.4095C133.773 60.9862 134.302 60.6157 134.83 60.2982C136.203 59.5345 138.309 59.1137 139.878 58.8002L140.061 58.7636C141.33 58.5519 142.017 57.5464 141.752 56.2235L138.053 56.9114C137.472 57.0172 137.155 57.1231 136.574 57.3348C136.257 57.4406 135.94 57.5993 135.676 57.7581C134.196 58.6048 133.456 59.769 133.298 61.4095ZM29.7792 66.8073L23.6495 65.9606L24.0194 63.8967L28.0354 64.5318C29.1451 64.6905 29.9378 64.373 30.1491 62.9971L24.2308 62.0446L24.6007 59.8749L28.7752 60.5099C29.8849 60.6687 30.8361 60.2983 31.0475 58.9224L25.1291 57.9698C24.6007 57.864 24.0723 58.0757 23.5967 58.499C23.1739 58.9224 22.9626 59.5045 22.8569 60.1924L21.6943 67.6011L27.5599 68.3948C28.6167 68.6065 29.5679 68.1832 29.7792 66.8073ZM65.4479 70.5113L71.6305 70.7759C71.5248 72.1518 70.6264 72.681 69.5168 72.6281L63.5984 72.3635L64.074 64.849C64.074 64.214 64.2325 63.5789 64.6553 63.1027C65.078 62.6793 65.6064 62.4147 66.1348 62.4676L72.1589 62.8381C72.0532 64.214 71.1549 64.6902 70.0452 64.6373L65.8178 64.3727L65.6593 66.5424L71.6305 66.9128C71.5776 68.2887 70.785 68.7121 69.6753 68.6591L65.6064 68.3945L65.4479 70.5113ZM85.1579 62.8382H84.6294C83.4669 62.8911 82.9913 63.632 83.0442 64.6904L83.1499 66.7542C83.7756 66.1275 84.9161 65.9647 85.3014 65.9096L85.3164 65.9075C85.2635 64.902 85.2107 63.8966 85.1579 62.8382ZM85.5806 72.7869L85.4221 68.7122L89.6495 68.5534L89.808 72.6282L92.0274 72.5223L91.6047 62.5736L89.3853 62.6794L89.5438 66.5954L85.792 66.7542C84.3652 66.8071 83.6783 67.2305 83.1499 67.7067L83.3612 72.8928L85.5806 72.7869ZM56.9929 71.8872L57.5213 63.8435C56.9929 63.8171 56.4513 63.7774 55.9096 63.7377C55.368 63.698 54.8263 63.6583 54.2979 63.6319C54.4036 62.256 55.3547 61.7268 56.4116 61.7797C57.5741 61.8591 58.7234 61.9385 59.8726 62.0178C61.022 62.0972 62.1714 62.1766 63.3339 62.256C63.2283 63.6319 62.3299 64.1611 61.2202 64.1081C60.9825 64.0817 60.7447 64.0685 60.5069 64.0552C60.2691 64.042 60.0313 64.0288 59.7935 64.0023L59.2651 72.046L56.9929 71.8872Z" fill="#0A2F87"/>
</svg>
