<svg width="161" height="85" viewBox="0 0 161 85" fill="none" xmlns="http://www.w3.org/2000/svg">
<path d="M117.38 25.8299C94.71 25.8299 71.63 17.2699 50.76 17.4999C27.39 17.7499 0.76001 26.8099 0.76001 26.8099V82.1899C0.76001 82.1899 25.13 77.6299 45.51 77.6299C71.64 77.6299 91.89 85.0299 118.01 84.3799C143.01 83.7499 150.29 73.6599 150.29 73.6599L150.32 19.8799C150.32 19.8799 140.8 25.8299 117.38 25.8299ZM20.17 70.2899H10.36L14.88 41.3299L7.03001 41.3099L8.38001 33.1599L34.1 33.1499L32.87 41.3199H24.64L20.17 70.2899ZM72.38 52.2399C70.68 63.3599 59.95 72.3099 48.42 72.2499C36.89 72.1799 28.93 63.1099 30.63 51.9999C32.33 40.8799 43.44 31.6899 54.97 31.7499C66.5 31.8199 74.08 41.1299 72.38 52.2399ZM104.44 42.6899C103.69 53.6899 94.54 55.3799 94.54 55.3799L103.39 70.2999H91.7L84.74 56.2199L82.11 70.3199H72.76L78.61 33.2599L93.48 33.2999C93.5 33.2899 105.1 33.0599 104.44 42.6899ZM138.94 56.0399C136.44 56.0399 134.33 54.1199 134.33 51.4899C134.33 48.8899 136.44 46.9699 138.94 46.9699C141.41 46.9699 143.52 48.8899 143.52 51.4899C143.53 54.1199 141.42 56.0399 138.94 56.0399ZM128.3 50.9199L140.67 70.2999H128.48L118.63 54.7199L115.84 70.3499L106.59 70.3299L112.51 33.2699H121.76L119.63 48.3499L133.76 33.2699L145.93 33.3099L128.3 50.9199Z" fill="#0056A6"/>
<path d="M140.2 50.3299C140.2 49.6799 139.61 49.5599 139.06 49.5599H137.98V51.1799H138.93C139.6 51.1799 140.2 51.1299 140.2 50.3299Z" fill="#0056A6"/>
<path d="M87 40.56L85.5 49.87C85.5 49.87 93.19 50.56 94.13 44.93C94.9 40.32 87 40.56 87 40.56Z" fill="#0056A6"/>
<path d="M53.01 41.25C47.3 41.21 41.79 46.07 40.95 51.94C40.11 57.81 44.05 62.59 49.77 62.63C55.48 62.67 60.8 57.94 61.64 52.07C62.48 46.2 58.72 41.29 53.01 41.25Z" fill="#0056A6"/>
<path d="M138.94 47.72C136.86 47.72 135.24 49.34 135.24 51.49C135.24 53.67 136.86 55.28 138.94 55.28C140.99 55.28 142.61 53.67 142.61 51.49C142.62 49.34 141 47.72 138.94 47.72ZM140.28 54.12L138.9 51.85H137.99V54.12H137.2V48.89H139.19C140.43 48.89 141.04 49.35 141.04 50.38C141.04 51.32 140.45 51.72 139.68 51.82L141.17 54.12H140.28Z" fill="#0056A6"/>
<path d="M7.80005 7.41994C7.80005 7.41994 28.5001 0.129944 46.0101 0.129944C68.1401 0.129944 89.63 10.2599 117.26 10.5099C144.64 10.7599 160.72 1.25994 160.72 1.25994C160.72 1.25994 152.89 21.3899 117.64 21.3899C92.89 21.3899 70.7701 12.0099 53.64 7.88994C33.47 3.01994 7.80005 7.41994 7.80005 7.41994Z" fill="#0056A6"/>
</svg>
