<svg width="188" height="42" viewBox="0 0 188 42" fill="none" xmlns="http://www.w3.org/2000/svg">
<path d="M0 42.8511H43.102V0H0V42.8511ZM27.6265 3.27257C35.2448 5.75486 40.7503 12.9351 40.771 21.4174C40.7917 29.7617 35.3975 36.9249 27.6265 39.5717V3.27257ZM21.5441 2.30143C22.9205 2.30143 24.3865 2.484 25.6077 2.72571C25.6077 12.4337 16.1628 20.4231 6.41528 20.4231L2.33965 20.4171C3.008 10.4657 11.2912 2.30143 21.5441 2.30143ZM6.41873 22.4443C16.1646 22.4443 25.6059 30.4251 25.6059 40.1237C24.3865 40.3714 22.8472 40.5557 21.5441 40.5557C11.2878 40.542 2.72428 32.3529 2.33706 22.4443H6.41873ZM57.5306 25.1906V22.4897H66.4994V19.0466H57.5289V14.0331H67.0712V10.5977H53.8577V25.0346C53.8577 28.6843 55.4212 31.1803 59.0915 31.6929C59.1648 31.7109 59.2372 31.7246 59.3045 31.7263H59.3709C59.7469 31.7683 60.1307 31.7957 60.5334 31.7957H67.3256V28.3646H60.5636C59.3968 28.3646 57.5306 27.792 57.5306 25.1906ZM69.9343 31.8009H73.6072V10.5926H69.9343V31.8009ZM84.3896 15.9806C79.7474 15.9806 76.2728 19.1597 76.2728 24.1097V24.2323C76.2728 29.0614 79.624 32.1789 84.4818 32.1789C86.8181 32.1789 89.0007 31.5377 90.9989 29.4274L88.7852 27.2889C87.6166 28.4503 86.4791 29.0614 84.6043 29.0614C81.868 29.0614 80.0544 27.4723 79.931 25.0269H91.982C92.0433 24.4157 92.0433 23.7437 92.0433 23.7437C92.045 19.434 89.0008 15.9806 84.3896 15.9806ZM80.0242 22.4597C80.1777 20.5946 82.0844 19.0971 84.3896 19.0971C86.5412 19.0971 88.2936 20.6254 88.2936 22.4597H80.0242ZM102.365 19.2506C104.025 19.2506 105.256 19.8626 106.3 20.9314L108.575 18.5777C106.792 16.6826 104.671 15.9189 102.365 15.9189C97.6919 15.9189 93.9414 19.3723 93.9414 24.0789C93.9414 28.7854 97.6919 32.2397 102.365 32.2397C104.671 32.2397 106.793 31.476 108.575 29.5809L106.3 27.2271C105.256 28.2969 104.025 28.908 102.365 28.908C99.659 28.908 97.5996 26.8594 97.5996 24.0789C97.5996 21.2983 99.659 19.2506 102.365 19.2506ZM114.534 25.1966H114.53V19.782H117.87V16.4649H114.534V10.5934H110.861V25.4117L110.872 25.4109C110.977 28.8566 112.552 31.2034 116.095 31.698C116.168 31.716 116.241 31.7297 116.308 31.7306H116.375C116.751 31.7726 117.134 31.8009 117.537 31.8009H117.926L117.939 28.3697H117.567C116.4 28.3697 114.534 27.798 114.534 25.1966ZM124.603 18.7457V16.4657H120.961V31.8009H124.603V23.7369C124.603 21.2117 126.226 19.6286 128.765 19.6286C129.347 19.6286 129.867 19.6886 130.296 19.7811V16.2523C129.932 16.1961 129.564 16.1654 129.195 16.1606C126.991 16.1614 125.338 17.166 124.603 18.7457ZM139.277 16.0089C134.593 16.0089 130.858 19.5369 130.858 24.1329C130.858 28.7263 134.593 32.2569 139.277 32.2569C143.928 32.2569 147.694 28.7263 147.694 24.1329C147.693 19.5377 143.928 16.0089 139.277 16.0089ZM139.277 28.9406C136.553 28.9406 134.503 26.8397 134.503 24.1329C134.503 21.4243 136.553 19.3251 139.277 19.3251C141.971 19.3251 144.051 21.4243 144.051 24.1329C144.05 26.8406 141.971 28.9406 139.277 28.9406ZM149.952 31.8009H153.626V10.5926H149.952V31.8009ZM166.873 25.38C166.873 27.8134 165.435 28.8497 163.506 28.8497C161.577 28.8497 160.14 27.8134 160.14 25.4126V16.4657H156.436V25.716C156.436 30.0977 159.649 32.1969 163.475 32.1969C167.332 32.1969 170.576 30.0669 170.576 25.6243V16.4657H166.873V25.38ZM184.473 26.8971L182.156 23.6769L185.025 19.7923L187.481 16.4657H183.472L180.134 21.06L176.767 16.4657H172.789L175.07 19.5677L178.114 23.7069L174.924 28.1237L172.268 31.8009H176.216L180.133 26.3846L184.052 31.8009H188.001L184.473 26.8971Z" fill="#0A2F87"/>
</svg>
