<svg width="109" height="108" viewBox="0 0 109 108" fill="none" xmlns="http://www.w3.org/2000/svg">
<path fill-rule="evenodd" clip-rule="evenodd" d="M0 0H109V108H0V0Z" fill="#E30613"/>
<path fill-rule="evenodd" clip-rule="evenodd" d="M19.0065 69C28.3697 69 36 75.7533 36 84C36 92.2599 28.3633 99 19.0065 99C9.63028 99 2 92.2599 2 84C1.99354 75.7533 9.63028 69 19.0065 69ZM19.2716 77.8216C15.8315 77.8216 13.038 80.5705 13.038 83.9405C13.038 87.3238 15.838 90.0727 19.2716 90.0727C22.7052 90.0727 25.5051 87.3238 25.5051 83.9405C25.5051 80.5705 22.7052 77.8216 19.2716 77.8216Z" fill="white"/>
<path fill-rule="evenodd" clip-rule="evenodd" d="M37.0066 98H47.9743V84.2484C47.9743 73.4591 58.482 66.1938 70.5997 65.5937C71.9074 65.5618 72.2229 66.6982 72.2229 67.726H83V58.3923C63.7851 56.2919 50.1429 62.9634 37 70.3499V98H37.0066Z" fill="white"/>
<path fill-rule="evenodd" clip-rule="evenodd" d="M72.1738 70.4388H83V97.9812H72.1738V94.8905C69.6059 96.8047 66.5363 98.1783 63.6977 97.9812C55.5385 97.8413 50.8714 93.4215 50 84.2831C50.0792 76.2576 54.7133 70.4006 63.6977 70C66.8202 70.0127 69.6521 71.1956 72.1738 73.5294V70.4388ZM66.8136 78.5915C63.5129 78.5915 60.813 81.1162 60.813 84.2068C60.813 87.3102 63.5129 89.8348 66.8136 89.8348C70.1142 89.8348 72.8142 87.3102 72.8142 84.2068C72.8076 81.1162 70.1142 78.5915 66.8136 78.5915Z" fill="white"/>
<path fill-rule="evenodd" clip-rule="evenodd" d="M83.929 89.3222V96.7789C86.8455 98.3444 90.1685 99.0984 93.5173 98.9897C100.899 99.0089 105.712 96.453 105.958 89.3222C106.441 83.9933 102.776 81.1946 95.6724 80.5045C94.1819 80.1084 93.5496 79.3991 93.5947 78.5685C94.0141 77.5717 94.6529 77.1117 95.6724 77.0158C98.3437 76.805 101.428 77.7059 105.015 79.9231V72.4856C101.899 70.7668 98.7954 70.0895 95.6724 70C88.3038 70.3067 84.0968 73.1948 83.058 78.6452C82.0449 89.45 94.6336 86.6194 95.6724 89.3222C95.9563 92.8749 90.5105 92.3062 83.929 89.3222Z" fill="white"/>
</svg>
