<svg width="38" height="38" viewBox="0 0 38 38" fill="none" xmlns="http://www.w3.org/2000/svg">
<path d="M17.9564 1.70706C18.538 1.1436 19.462 1.1436 20.0436 1.70706L20.3915 1.34793L20.0436 1.70706L21.3325 2.95552C22.0017 3.60373 22.9758 3.82606 23.8599 3.53239L25.5628 2.96678C26.3314 2.7115 27.1638 3.11238 27.4434 3.87242L28.0629 5.55645C28.3846 6.43082 29.1658 7.05378 30.0898 7.17282L31.8695 7.40207C32.6727 7.50554 33.2487 8.22789 33.1709 9.03398L32.9984 10.82C32.9088 11.7474 33.3423 12.6476 34.1232 13.1558L35.6271 14.1345C36.3059 14.5762 36.5115 15.477 36.0916 16.1694L35.1612 17.7038C34.6782 18.5004 34.6782 19.4996 35.1612 20.2962L36.0916 21.8306C36.5115 22.523 36.3059 23.4238 35.6271 23.8655L34.1232 24.8442C33.3423 25.3524 32.9088 26.2526 32.9984 27.18L33.1709 28.966C33.2487 29.7721 32.6727 30.4945 31.8695 30.5979L30.0898 30.8272C29.1658 30.9462 28.3846 31.5692 28.0629 32.4435L27.4434 34.1276C27.1638 34.8876 26.3314 35.2885 25.5628 35.0332L23.8599 34.4676C22.9758 34.1739 22.0017 34.3963 21.3325 35.0445L20.0436 36.2929C19.462 36.8564 18.538 36.8564 17.9564 36.2929L16.6675 35.0445C15.9983 34.3963 15.0242 34.1739 14.1401 34.4676L12.4372 35.0332C11.6686 35.2885 10.8362 34.8876 10.5566 34.1276L9.93706 32.4435C9.6154 31.5692 8.83422 30.9462 7.9102 30.8272L6.13054 30.5979C5.32733 30.4945 4.75128 29.7721 4.82913 28.966L5.00164 27.18C5.0912 26.2526 4.65768 25.3524 3.87681 24.8442L2.37286 23.8655C1.69409 23.4238 1.4885 22.523 1.9084 21.8306L2.83876 20.2962C3.32181 19.4996 3.32181 18.5004 2.83876 17.7038L1.9084 16.1694C1.4885 15.477 1.69409 14.5762 2.37286 14.1345L3.87682 13.1558C4.65768 12.6476 5.0912 11.7474 5.00164 10.82L4.82913 9.03398C4.75128 8.22789 5.32733 7.50554 6.13054 7.40207L7.9102 7.17282C8.83422 7.05378 9.6154 6.43082 9.93706 5.55645L10.5566 3.87242C10.8362 3.11238 11.6686 2.7115 12.4372 2.96678L14.1401 3.53239C15.0242 3.82607 15.9983 3.60373 16.6675 2.95552L17.9564 1.70706L17.6085 1.34793L17.9564 1.70706Z" fill="#1F59EE" stroke="white"/>
<path fill-rule="evenodd" clip-rule="evenodd" d="M19 28C22.3137 28 25 25.3137 25 22C25 18.6863 19 10 19 10C19 10 13 18.6863 13 22C13 25.3137 15.6863 28 19 28ZM23.5 21.5C23.6985 23.4879 23.2384 24.3507 21.5 25.5C21.4573 23.5266 21.9331 22.6672 23.5 21.5Z" fill="white"/>
</svg>
