<svg width="93" height="17" viewBox="0 0 93 17" fill="none" xmlns="http://www.w3.org/2000/svg">
<path d="M6.48 13.198C5.7 13.198 4.974 13.078 4.302 12.838C3.642 12.598 3.066 12.22 2.574 11.704C2.082 11.188 1.692 10.528 1.404 9.724C1.128 8.908 0.99 7.93 0.99 6.79V6.43C0.99 5.338 1.134 4.402 1.422 3.622C1.71 2.83 2.1 2.182 2.592 1.678C3.096 1.174 3.678 0.802 4.338 0.561999C5.01 0.321999 5.724 0.202 6.48 0.202C7.176 0.202 7.824 0.291999 8.424 0.471999C9.024 0.639999 9.546 0.897999 9.99 1.246C10.446 1.594 10.812 2.026 11.088 2.542C11.376 3.058 11.55 3.664 11.61 4.36H9.342C9.186 3.58 8.85 3.01 8.334 2.65C7.83 2.29 7.212 2.11 6.48 2.11C6.084 2.11 5.694 2.182 5.31 2.326C4.926 2.47 4.578 2.71 4.266 3.046C3.966 3.382 3.72 3.826 3.528 4.378C3.348 4.93 3.258 5.614 3.258 6.43V6.79C3.258 7.654 3.354 8.374 3.546 8.95C3.75 9.526 4.008 9.988 4.32 10.336C4.632 10.684 4.974 10.93 5.346 11.074C5.73 11.218 6.108 11.29 6.48 11.29C7.344 11.29 8.01 11.092 8.478 10.696C8.958 10.288 9.246 9.736 9.342 9.04H11.61C11.538 9.784 11.358 10.42 11.07 10.948C10.782 11.476 10.41 11.908 9.954 12.244C9.51 12.568 8.988 12.808 8.388 12.964C7.8 13.12 7.164 13.198 6.48 13.198ZM16.4777 13.198C15.9617 13.198 15.4997 13.126 15.0917 12.982C14.6957 12.826 14.3597 12.616 14.0837 12.352C13.8077 12.076 13.5977 11.758 13.4537 11.398C13.3097 11.038 13.2377 10.642 13.2377 10.21C13.2377 9.262 13.5197 8.56 14.0837 8.104C14.6477 7.636 15.4757 7.402 16.5677 7.402H19.5377V6.88C19.5377 6.16 19.3757 5.668 19.0517 5.404C18.7397 5.128 18.2417 4.99 17.5577 4.99C16.9457 4.99 16.4957 5.086 16.2077 5.278C15.9197 5.47 15.7517 5.734 15.7037 6.07H13.7777C13.8017 5.662 13.9037 5.29 14.0837 4.954C14.2757 4.606 14.5337 4.306 14.8577 4.054C15.1937 3.802 15.5957 3.61 16.0637 3.478C16.5317 3.334 17.0597 3.262 17.6477 3.262C18.2357 3.262 18.7637 3.328 19.2317 3.46C19.7117 3.592 20.1197 3.802 20.4557 4.09C20.7917 4.366 21.0497 4.726 21.2297 5.17C21.4217 5.614 21.5177 6.148 21.5177 6.772V10.57C21.5177 11.074 21.5237 11.518 21.5357 11.902C21.5477 12.274 21.5777 12.64 21.6257 13H19.8257C19.7897 12.724 19.7597 12.49 19.7357 12.298C19.7237 12.106 19.7177 11.866 19.7177 11.578C19.4897 12.022 19.0937 12.406 18.5297 12.73C17.9777 13.042 17.2937 13.198 16.4777 13.198ZM17.0177 11.47C17.3537 11.47 17.6717 11.428 17.9717 11.344C18.2837 11.248 18.5537 11.116 18.7817 10.948C19.0097 10.768 19.1897 10.552 19.3217 10.3C19.4657 10.036 19.5377 9.736 19.5377 9.4V8.878H16.9277C16.4237 8.878 16.0157 8.986 15.7037 9.202C15.4037 9.418 15.2537 9.736 15.2537 10.156C15.2537 10.552 15.3917 10.87 15.6677 11.11C15.9557 11.35 16.4057 11.47 17.0177 11.47ZM23.9534 3.46H25.9334V7.294H30.4334V3.46H32.4134V13H30.4334V8.986H25.9334V13H23.9534V3.46ZM35.2997 0.399999H43.3997V2.272H37.4597V13H35.2997V0.399999ZM45.8156 13.198C45.2996 13.198 44.8376 13.126 44.4296 12.982C44.0336 12.826 43.6976 12.616 43.4216 12.352C43.1456 12.076 42.9356 11.758 42.7916 11.398C42.6476 11.038 42.5756 10.642 42.5756 10.21C42.5756 9.262 42.8576 8.56 43.4216 8.104C43.9856 7.636 44.8136 7.402 45.9056 7.402H48.8756V6.88C48.8756 6.16 48.7136 5.668 48.3896 5.404C48.0776 5.128 47.5796 4.99 46.8956 4.99C46.2836 4.99 45.8336 5.086 45.5456 5.278C45.2576 5.47 45.0896 5.734 45.0416 6.07H43.1156C43.1396 5.662 43.2416 5.29 43.4216 4.954C43.6136 4.606 43.8716 4.306 44.1956 4.054C44.5316 3.802 44.9336 3.61 45.4016 3.478C45.8696 3.334 46.3976 3.262 46.9856 3.262C47.5736 3.262 48.1016 3.328 48.5696 3.46C49.0496 3.592 49.4576 3.802 49.7936 4.09C50.1296 4.366 50.3876 4.726 50.5676 5.17C50.7596 5.614 50.8556 6.148 50.8556 6.772V10.57C50.8556 11.074 50.8616 11.518 50.8736 11.902C50.8856 12.274 50.9156 12.64 50.9636 13H49.1636C49.1276 12.724 49.0976 12.49 49.0736 12.298C49.0616 12.106 49.0556 11.866 49.0556 11.578C48.8276 12.022 48.4316 12.406 47.8676 12.73C47.3156 13.042 46.6316 13.198 45.8156 13.198ZM46.3556 11.47C46.6916 11.47 47.0096 11.428 47.3096 11.344C47.6216 11.248 47.8916 11.116 48.1196 10.948C48.3476 10.768 48.5276 10.552 48.6596 10.3C48.8036 10.036 48.8756 9.736 48.8756 9.4V8.878H46.2656C45.7616 8.878 45.3536 8.986 45.0416 9.202C44.7416 9.418 44.5916 9.736 44.5916 10.156C44.5916 10.552 44.7296 10.87 45.0056 11.11C45.2936 11.35 45.7436 11.47 46.3556 11.47ZM53.2913 3.46H55.1273V5.062C55.4153 4.51 55.8413 4.072 56.4053 3.748C56.9813 3.424 57.6293 3.262 58.3493 3.262C59.5973 3.262 60.5813 3.652 61.3013 4.432C62.0213 5.212 62.3813 6.388 62.3813 7.96V8.32C62.3813 9.136 62.2853 9.85 62.0933 10.462C61.9013 11.074 61.6253 11.584 61.2653 11.992C60.9173 12.388 60.4973 12.688 60.0053 12.892C59.5133 13.096 58.9613 13.198 58.3493 13.198C57.6653 13.198 57.0413 13.048 56.4773 12.748C55.9133 12.448 55.5113 12.028 55.2713 11.488V16.6H53.2913V3.46ZM57.8813 11.47C58.6253 11.47 59.2253 11.212 59.6813 10.696C60.1373 10.18 60.3653 9.388 60.3653 8.32V7.96C60.3653 6.952 60.1433 6.208 59.6993 5.728C59.2553 5.236 58.6493 4.99 57.8813 4.99C57.5453 4.99 57.2213 5.044 56.9093 5.152C56.5973 5.26 56.3153 5.422 56.0633 5.638C55.8233 5.842 55.6313 6.106 55.4873 6.43C55.3433 6.742 55.2713 7.102 55.2713 7.51V8.77C55.2713 9.226 55.3433 9.622 55.4873 9.958C55.6313 10.294 55.8233 10.576 56.0633 10.804C56.3033 11.032 56.5793 11.2 56.8913 11.308C57.2033 11.416 57.5333 11.47 57.8813 11.47ZM67.1555 13.198C66.6395 13.198 66.1775 13.126 65.7695 12.982C65.3735 12.826 65.0375 12.616 64.7615 12.352C64.4855 12.076 64.2755 11.758 64.1315 11.398C63.9875 11.038 63.9155 10.642 63.9155 10.21C63.9155 9.262 64.1975 8.56 64.7615 8.104C65.3255 7.636 66.1535 7.402 67.2455 7.402H70.2155V6.88C70.2155 6.16 70.0535 5.668 69.7295 5.404C69.4175 5.128 68.9195 4.99 68.2355 4.99C67.6235 4.99 67.1735 5.086 66.8855 5.278C66.5975 5.47 66.4295 5.734 66.3815 6.07H64.4555C64.4795 5.662 64.5815 5.29 64.7615 4.954C64.9535 4.606 65.2115 4.306 65.5355 4.054C65.8715 3.802 66.2735 3.61 66.7415 3.478C67.2095 3.334 67.7375 3.262 68.3255 3.262C68.9135 3.262 69.4415 3.328 69.9095 3.46C70.3895 3.592 70.7975 3.802 71.1335 4.09C71.4695 4.366 71.7275 4.726 71.9075 5.17C72.0995 5.614 72.1955 6.148 72.1955 6.772V10.57C72.1955 11.074 72.2015 11.518 72.2135 11.902C72.2255 12.274 72.2555 12.64 72.3035 13H70.5035C70.4675 12.724 70.4375 12.49 70.4135 12.298C70.4015 12.106 70.3955 11.866 70.3955 11.578C70.1675 12.022 69.7715 12.406 69.2075 12.73C68.6555 13.042 67.9715 13.198 67.1555 13.198ZM67.6955 11.47C68.0315 11.47 68.3495 11.428 68.6495 11.344C68.9615 11.248 69.2315 11.116 69.4595 10.948C69.6875 10.768 69.8675 10.552 69.9995 10.3C70.1435 10.036 70.2155 9.736 70.2155 9.4V8.878H67.6055C67.1015 8.878 66.6935 8.986 66.3815 9.202C66.0815 9.418 65.9315 9.736 65.9315 10.156C65.9315 10.552 66.0695 10.87 66.3455 11.11C66.6335 11.35 67.0835 11.47 67.6955 11.47ZM74.6311 3.46H76.6111V7.294H81.1111V3.46H83.0911V13H81.1111V8.986H76.6111V13H74.6311V3.46ZM87.8674 5.152H84.7174V3.46H92.9974V5.152H89.8474V13H87.8674V5.152Z" fill="#0A2F87"/>
</svg>
