<svg width="140" height="56" viewBox="0 0 140 56" fill="none" xmlns="http://www.w3.org/2000/svg">
<path fill-rule="evenodd" clip-rule="evenodd" d="M92.6312 31.8201C98.1802 35.9179 102.304 42.7286 103.401 52.6575V56H97.3104C96.1125 56 94.916 55.5401 94.0022 54.6225C93.0878 53.7087 92.6312 52.5081 92.6312 51.3062V31.8201ZM17.032 19.7183C19.1456 19.7183 21.7558 20.4841 21.7558 24.222C21.7558 27.4638 19.1456 27.8533 17.032 27.8533H9.69679V19.7183H17.032ZM20.1401 36.0514C21.6331 36.0514 25.2365 37.0494 25.2365 41.7865C25.2365 46.5243 21.6331 46.898 20.1401 46.898H13.1801C10.9405 46.898 9.57281 45.527 9.57281 43.4075V36.0514H20.1401ZM130.052 25.5673V46.8941H125.204C119.853 46.8941 119.853 44.2752 119.853 42.4042V25.5673H110.029V42.4042C110.029 53.1311 117.989 55.998 124.206 55.998H140V25.5673H130.052ZM61.4036 46.8941H55.6834C50.3358 46.8941 49.588 43.4015 49.588 41.5306V38.2894C49.588 35.4212 52.3261 33.3022 55.1855 33.3022C58.6688 33.3022 61.4036 35.4212 61.4036 38.2894V46.8941ZM55.6841 24.0726C45.984 24.0726 39.7652 30.682 39.7652 39.0374V42.1556C39.7652 52.8811 48.4708 55.998 54.6889 55.998H70.981V38.2894C70.9804 29.9334 63.8905 24.0726 55.6841 24.0726ZM29.2157 31.1899C31.3273 28.6947 31.7012 25.8278 31.7012 23.5852V22.4622C31.7012 14.3595 24.9885 11.9991 17.032 11.9991H0V45.4014C0 51.2615 4.84905 56 10.8146 56H20.6373C33.9388 56 35.1812 46.275 35.1812 42.5338V40.5412C35.1812 36.7994 34.0641 33.1852 29.2157 31.1899ZM77.7062 26.9816C81.1527 27.0297 84.556 27.6947 87.71 29.0249V56H82.6681C81.3961 56 80.1281 55.5119 79.1605 54.5422C78.1877 53.5699 77.7062 52.2989 77.7062 51.0227V26.9816Z" fill="#6F737B"/>
<mask id="mask0" mask-type="alpha" maskUnits="userSpaceOnUse" x="70" y="0" width="34" height="53">
<path fill-rule="evenodd" clip-rule="evenodd" d="M70.5908 19.3605C75.8381 18.5967 77.6906 20.5268 77.707 25.0173V26.9816C81.1535 27.029 84.5561 27.6948 87.7101 29.0249V7.67841L70.5908 15.8574V19.3605ZM92.632 5.27529V31.8201C98.1803 35.9179 102.305 42.7286 103.402 52.6568V0L92.632 5.27529Z" fill="#5BBA47"/>
</mask>
<g mask="url(#mask0)">
<path d="M63.9055 53.7549L73.1731 -2.4845L108.597 -2.95129L106.39 53.7549L63.9055 53.7549Z" fill="url(#paint0_linear)"/>
<path d="M70.5904 19.3579L66.7031 5.55075L88.6787 4.56398L105.078 -3.3302L103.438 52.5869C101.209 27.3395 92.3369 22.2436 75.0624 19.5931C73.7349 19.2374 71.1256 19.9742 70.5904 19.3579Z" fill="url(#paint1_linear)"/>
</g>
<defs>
<linearGradient id="paint0_linear" x1="79.4101" y1="67.3016" x2="78.2869" y2="-17.9275" gradientUnits="userSpaceOnUse">
<stop stop-color="#ECF5E8"/>
<stop offset="0.1" stop-color="#ECF5E8"/>
<stop offset="0.8" stop-color="#5BBA47"/>
<stop offset="1" stop-color="#5BBA47"/>
</linearGradient>
<linearGradient id="paint1_linear" x1="77.6399" y1="31.4357" x2="82.7088" y2="-4.52987" gradientUnits="userSpaceOnUse">
<stop stop-color="#ECF5E8"/>
<stop offset="0.1" stop-color="#ECF5E8"/>
<stop offset="0.8" stop-color="#5BBA47"/>
<stop offset="1" stop-color="#5BBA47"/>
</linearGradient>
</defs>
</svg>
